<svg width="343" height="423" viewBox="0 0 343 423" fill="none" xmlns="http://www.w3.org/2000/svg">
<path d="M13.2952 155.988C5.43164 154.896 -1.53439 149.475 0.294924 142.631L12.4416 97.1931C19.632 70.2988 20.7686 55.3966 22.3686 27.7662C20.8613 24.5537 20.7686 21.5654 22.2662 18.5041C24.2955 14.3507 25.7736 8.78857 29.7786 5.95631C40.252 -1.44364 63.1111 -0.463801 74.848 2.60732C80.7165 4.14289 85.3019 7.83311 88.5801 12.8932C95.9266 24.2222 94.6436 41.0598 92.1802 54.056C88.7898 71.9465 84.1604 89.0132 79.3554 106.606C76.6432 116.546 74.248 125.95 69.7113 135.134C63.4624 147.784 51.0718 155.388 37.1593 157.319C29.2274 158.425 21.5442 157.134 13.2952 155.988ZM53.8768 120.1C60.2476 96.6812 65.3161 73.3212 69.4918 49.4152C70.1211 45.7981 71.5309 30.4571 66.8137 30.0622C61.1501 29.5894 55.589 29.9598 50.0864 30.8519C49.4864 39.1196 48.8132 46.6317 47.6522 54.7921C43.7253 82.3542 39.8471 107.947 29.2225 134.183C33.0421 134.402 36.3105 133.764 39.8569 132.799C48.5742 130.42 50.4962 132.531 53.8768 120.1Z" fill="black"/>
<path d="M212.944 122.596C216.788 117.916 220.72 113.271 222.018 107.66L224.496 96.9498C225.583 92.2505 231.193 87.8534 236.135 89.6522C240.872 91.3779 244.964 94.5953 249.018 97.5055C251.013 98.9387 252.169 101.517 251.711 103.999C250.672 109.615 248.965 114.757 246.228 119.705C238.74 133.228 226.662 149.505 211.515 154.76C206.724 156.422 201.163 156.549 196.197 155.862C189.246 154.901 183.451 151.104 178.855 145.99C171.86 138.21 168.85 128.46 168.197 118.024C166.328 88.3019 170.572 59.9549 184.485 33.4799C191.129 20.8346 200.578 11.1728 213.173 4.66007C218.017 2.15443 222.457 0.701726 228.091 0.994214C239.491 1.58407 250.072 6.47837 256.184 16.1987C260.511 23.0771 264.199 30.75 263.136 39.1395C261.789 49.7569 255.179 58.7411 247.365 65.5463C244.321 68.1982 241.062 70.1189 237.013 69.7484C226.022 68.7491 222.525 53.9931 217.817 45.4134C217.222 44.3312 214.076 44.9844 213.003 45.5743C207.924 48.3821 204.398 53.2862 202.183 58.6728C193.388 80.0635 187.904 102.107 193.651 124.999C194.646 128.958 197.988 130.844 201.924 129.704C205.973 128.534 210.042 126.13 212.944 122.596Z" fill="black"/>
<path d="M112.498 10.2268C115.215 8.15991 120.045 7.07284 121.864 10.339C125.054 16.0668 124.918 22.8379 123.767 29.3068C120.235 49.196 117.825 68.6611 117.718 88.8769C117.679 95.9892 118.352 116.522 123.781 121.294C131.972 113.285 138.499 93.3861 141.694 82.7151C147.64 62.8454 151.26 42.849 153.792 22.1993C154.504 16.3691 155.48 10.9873 158.66 6.18561C160.992 2.66113 164.69 -0.609853 169.173 0.0969931C172.148 0.564974 174.07 4.1187 174.109 7.1752C174.548 42.5955 165.441 88.4284 150.636 120.807C143.991 135.329 135.269 151.781 119.762 157.87C113.074 160.493 106.327 158.362 102.532 152.283C98.5952 145.975 96.0098 139.009 94.5951 131.531C88.4194 98.9238 95.522 55.4406 104.537 23.574C106.015 18.3239 107.873 13.7416 112.498 10.2268Z" fill="black"/>
<path d="M319.049 143.28L310.156 149.105C306.985 151.182 302.727 150.68 300.717 146.839C293.829 133.667 289.395 118.365 281.487 104.847L270.477 149.568C269.501 153.532 265.648 156.096 261.721 156.218L251.335 156.539C247.155 156.671 246.257 151.621 247.091 148.316L258.35 103.726C262.116 88.8138 264.672 74.2869 266.687 59.0336C268.692 43.8681 269.101 29.1121 270.223 13.8491C271.189 9.76889 282.634 -1.68201 287.946 3.11479C290.712 5.61556 291.004 9.74451 291.292 13.4055C292.487 28.4832 291.146 42.7518 290.497 58.7753C298.17 49.3328 304.122 39.9098 310.995 30.6038L325.493 10.9778C328.698 4.8161 333.015 5.26945 339.396 6.6344C342.552 7.30712 343.362 9.89564 342.864 12.8985C340.269 17.5881 337.693 21.8145 334.757 26.4212C323.278 44.4287 311.829 62.1145 299.468 79.3762L322.532 132.058C324.415 136.343 322.591 140.594 319.049 143.28Z" fill="black"/>
<path d="M168.295 422.795C217.059 422.795 256.589 417.998 256.589 412.08C256.589 406.163 217.059 401.366 168.295 401.366C119.531 401.366 80 406.163 80 412.08C80 417.998 119.531 422.795 168.295 422.795Z" fill="#FFA62B"/>
<path d="M225.545 407.864C211.139 409.89 205.786 415.9 202.356 415.9C198.913 415.9 195.215 410.803 185.037 410.515C172.941 410.158 168.528 410.343 171.353 408.928C182.301 403.777 190.019 397.617 190.019 397.617C190.019 397.617 190.019 386.305 190.019 376.813H199.827C199.827 376.813 199.827 389.739 199.827 397.617C212.658 406.442 225.95 404.437 225.545 407.864Z" fill="#FF8324"/>
<path d="M202.356 415.9C198.913 415.9 195.215 410.803 185.037 410.515C172.941 410.158 168.528 410.343 171.353 408.928C182.301 403.777 190.019 397.617 190.019 397.617C190.019 397.617 190.019 386.305 190.019 376.813H199.827C199.827 376.813 199.724 390.556 199.724 398.434C198.047 397.321 199.201 398.86 198.047 400.68C192.954 408.661 206.796 410.618 202.356 415.9Z" fill="#B8551B"/>
<path d="M192.212 378.997C192.205 381.937 192.081 384.89 191.834 387.96C191.586 391.03 191.222 394.238 190.844 397.617L190.796 398.077L190.562 398.235C186.982 401.442 183.085 404.189 178.906 406.559C176.817 407.74 174.652 408.805 172.405 409.711L170.7 410.35L170.604 410.384C170.645 410.377 170.679 410.357 170.721 410.336C170.81 410.295 170.899 410.219 170.968 410.123C171.112 409.931 171.147 409.711 171.119 409.54C171.092 409.368 170.996 409.169 170.796 409.031C170.7 408.963 170.59 408.921 170.487 408.901C170.439 408.894 170.405 408.887 170.356 408.887C170.336 408.887 170.418 408.887 170.439 408.887C171.642 408.846 172.844 408.846 174.027 408.846C176.398 408.86 178.755 408.894 181.112 408.935L184.645 409.004C185.841 409.038 187.105 409.093 188.329 409.258C189.566 409.409 190.789 409.663 192.006 409.979C193.208 410.329 194.404 410.721 195.545 411.222C196.686 411.71 197.793 412.266 198.837 412.816C199.868 413.358 200.892 413.908 201.689 414.1L201.978 414.169L202.226 414.182L202.349 414.196L202.459 414.175C202.535 414.162 202.597 414.175 202.679 414.148C202.975 414.079 203.38 413.908 203.841 413.653C204.768 413.138 205.848 412.472 206.933 411.909C209.119 410.748 211.421 409.842 213.744 409.134C216.067 408.42 218.411 407.836 220.768 407.376L222.535 407.026L224.301 406.731L225.95 406.456C225.724 406.497 225.407 406.696 225.27 406.93C225.119 407.163 225.091 407.362 225.098 407.534C225.112 407.706 225.167 407.884 225.291 408.056C225.352 408.138 225.435 408.221 225.524 408.283C225.572 408.31 225.614 408.338 225.662 408.358L225.724 408.379L225.676 408.358C221.724 406.744 216.789 406.518 212.17 404.959C209.854 404.224 207.586 403.297 205.449 402.163C203.325 400.989 201.318 399.656 199.442 398.18L199.428 398.173L199.181 398.077L199.126 397.603L196.734 376.813V376.8L199.827 379.89C198.555 379.89 197.346 379.822 196.109 379.657C194.872 379.506 193.586 379.258 192.212 378.997ZM188.487 375.282C190.191 374.993 192.006 374.664 193.916 374.389C195.827 374.107 197.827 373.881 199.827 373.73L202.892 373.496L202.92 376.82V376.834V397.624L201.58 395.075L201.593 395.082C203.284 396.525 205.119 397.795 207.023 398.922C208.954 400.007 210.981 400.92 213.119 401.607C215.249 402.328 217.476 402.809 219.786 403.283C222.088 403.784 224.542 404.231 226.94 405.206L226.995 405.226L227.16 405.302C227.277 405.357 227.387 405.419 227.49 405.501C227.703 405.652 227.895 405.838 228.047 406.044C228.349 406.463 228.5 406.93 228.521 407.404C228.535 407.877 228.431 408.379 228.115 408.853C227.806 409.327 227.236 409.698 226.713 409.801L224.878 410.116L223.16 410.405L221.462 410.748C219.194 411.195 216.961 411.758 214.789 412.438C213.696 412.774 212.631 413.159 211.586 413.571C210.549 414.011 209.531 414.478 208.555 415.02C207.552 415.549 206.645 416.133 205.511 416.772C204.94 417.081 204.26 417.431 203.387 417.63C202.5 417.795 201.538 417.754 200.81 417.541C199.284 417.136 198.226 416.504 197.167 415.975C196.123 415.439 195.126 414.952 194.109 414.526C192.088 413.681 190.006 413.125 187.841 412.884C186.748 412.747 185.697 412.719 184.549 412.685L181.023 412.616C178.673 412.575 176.322 412.541 173.992 412.527C172.824 412.52 171.676 412.527 170.549 412.568H170.391C170.212 412.568 170.04 412.555 169.855 412.52C169.477 412.452 169.085 412.3 168.741 412.067C168.04 411.593 167.635 410.865 167.518 410.151C167.394 409.437 167.545 408.612 168.047 407.926C168.301 407.589 168.618 407.321 168.954 407.129C169.112 407.04 169.277 406.971 169.442 406.909L169.566 406.868L171.133 406.312C173.216 405.522 175.257 404.56 177.25 403.489C179.243 402.411 181.188 401.222 183.078 399.938C184.954 398.667 186.879 397.321 188.569 395.941L187.8 397.624C187.806 393.894 187.868 390.124 187.999 386.381C188.116 382.631 188.301 378.922 188.487 375.282Z" fill="black"/>
<path d="M181.937 411.187C158.728 413.117 153.312 417.993 149.931 418.831C149.608 418.921 149.292 418.962 148.989 418.962C145.56 418.962 141.848 413.9 131.67 413.577C112.873 412.966 111.388 411.888 114.22 410.48C133.965 404.958 142.721 396.139 142.721 396.139C142.721 396.139 142.721 384.828 142.721 375.329H152.522C152.522 375.329 152.522 388.255 152.522 396.139C165.367 404.958 188.205 410.885 181.937 411.187Z" fill="#FF8324"/>
<path d="M152.529 396.139C150.274 400.919 145.745 401.057 152.096 412.499C153.979 415.899 148.453 416.51 148.59 416.943C148.267 417.032 149.298 418.962 148.996 418.962C145.566 418.962 141.855 413.9 131.677 413.577C112.879 412.966 111.395 411.888 114.227 410.48C133.972 404.958 142.728 396.139 142.728 396.139C142.728 396.139 142.728 384.828 142.728 375.329H152.529C152.529 375.329 152.529 388.262 152.529 396.139Z" fill="#B8551B"/>
<path d="M144.556 377.163L144.721 379.595L144.817 381.957C144.831 383.502 144.859 385.055 144.79 386.593C144.714 388.132 144.666 389.697 144.501 391.277C144.371 392.864 144.171 394.478 143.944 396.14L143.903 396.442C143.876 396.669 143.759 396.861 143.594 396.991C142.549 398.049 141.532 398.914 140.446 399.787C139.374 400.652 138.254 401.456 137.127 402.232C134.845 403.763 132.46 405.123 130.034 406.387C127.594 407.63 125.099 408.763 122.556 409.773C121.292 410.302 119.993 410.734 118.714 411.222C117.422 411.668 116.117 412.08 114.818 412.506L115.196 412.362C115.01 412.458 114.838 412.568 114.804 412.596C114.804 412.596 114.783 412.609 114.831 412.568C114.845 412.554 114.859 412.541 114.873 412.52C114.914 412.479 114.955 412.431 114.989 412.376L115.044 412.286C115.079 412.232 115.106 412.177 115.134 412.115C115.182 411.991 115.209 411.902 115.251 411.682C115.306 411.297 115.223 410.885 115.051 410.583C115.003 410.48 114.934 410.377 114.852 410.288C114.804 410.24 114.776 410.212 114.769 410.199L114.715 410.144C114.68 410.109 114.618 410.068 114.605 410.061C114.598 410.054 114.584 410.041 114.577 410.034C114.543 410.013 114.55 410.02 114.57 410.027C114.584 410.034 114.591 410.041 114.632 410.047C114.756 410.089 114.962 410.151 115.182 410.199C116.082 410.398 117.175 410.528 118.247 410.638C120.412 410.844 122.639 410.968 124.859 411.091C127.086 411.208 129.319 411.297 131.56 411.366C133.931 411.435 136.391 411.723 138.756 412.376C141.113 413.021 143.415 414.045 145.429 415.13C146.432 415.652 147.408 416.181 148.158 416.442C148.549 416.593 148.81 416.6 149.01 416.627C149.175 416.593 149.443 416.572 149.876 416.394C150.707 416.084 151.752 415.562 152.804 415.095C153.862 414.622 154.948 414.161 156.054 413.749C158.26 412.939 160.508 412.266 162.755 411.696C167.264 410.569 171.807 409.841 176.343 409.319C177.477 409.162 178.631 409.086 179.772 408.962L181.491 408.797C181.786 408.763 182.061 408.756 182.102 408.749C182.095 408.749 182.137 408.749 182.047 408.763L181.93 408.804C181.834 408.839 181.745 408.887 181.662 408.942C181.552 409.004 181.449 409.079 181.353 409.168C181.305 409.21 181.257 409.258 181.216 409.306C181.181 409.347 181.133 409.402 181.044 409.512C180.741 409.924 180.597 410.405 180.604 410.92C180.611 411.05 180.625 411.174 180.652 411.297C180.686 411.435 180.686 411.449 180.707 411.524C180.748 411.655 180.803 411.778 180.865 411.895C180.954 412.039 180.954 412.039 180.989 412.094C181.023 412.142 181.058 412.183 181.092 412.225C181.284 412.438 181.284 412.396 181.243 412.376C181.216 412.355 181.133 412.3 181.051 412.252C180.886 412.156 180.659 412.039 180.446 411.929C179.992 411.71 179.504 411.483 179.009 411.263C178.013 410.824 176.982 410.398 175.951 409.965L169.704 407.348C167.628 406.435 165.559 405.487 163.504 404.491C159.395 402.513 155.374 400.254 151.608 397.5L151.601 397.493C151.264 397.369 151.044 397.081 150.989 396.751L150.886 396.126C150.742 395.261 150.625 394.395 150.563 393.523L150.453 392.225L150.405 390.927C150.309 389.196 150.35 387.459 150.336 385.728L150.329 383.125L150.384 380.522C150.412 378.791 150.487 377.053 150.584 375.323V375.316L152.549 377.28C151.147 377.383 149.821 377.445 148.522 377.417C147.195 377.411 145.903 377.301 144.556 377.163ZM140.9 373.51C142.927 373.468 144.962 373.503 146.927 373.64C148.893 373.77 150.769 373.997 152.529 374.244L152.735 374.272C153.264 374.347 153.642 374.814 153.621 375.336V375.343C153.594 377.074 153.546 378.812 153.553 380.542C153.546 382.273 153.553 384.011 153.58 385.741C153.608 387.472 153.608 389.21 153.683 390.941C153.724 392.671 153.862 394.409 154.047 396.14L153.388 394.89L153.395 394.897C156.989 397.355 160.955 399.388 164.982 401.256C169.023 403.125 173.174 404.793 177.353 406.469C178.398 406.895 179.449 407.314 180.501 407.767C181.03 407.994 181.559 408.227 182.095 408.488C182.37 408.619 182.638 408.756 182.927 408.921C183.071 409.004 183.216 409.086 183.387 409.203C183.552 409.319 183.731 409.429 183.999 409.725L184.116 409.869C184.157 409.924 184.178 409.944 184.24 410.061C184.288 410.157 184.336 410.26 184.37 410.363C184.405 410.439 184.446 410.624 184.446 410.81C184.46 411.181 184.343 411.517 184.13 411.819C184.068 411.902 184.033 411.943 183.999 411.977L183.882 412.087C183.8 412.156 183.717 412.218 183.628 412.273C183.525 412.328 183.422 412.376 183.312 412.424C183.209 412.465 183.161 412.472 183.078 412.499C182.92 412.547 182.831 412.554 182.714 412.575C182.288 412.644 182.006 412.637 181.738 412.671L180.082 412.829C178.975 412.946 177.875 413.021 176.769 413.172C172.343 413.681 167.944 414.388 163.663 415.453C161.525 415.988 159.422 416.62 157.367 417.376C156.343 417.76 155.333 418.165 154.322 418.619C153.305 419.051 152.322 419.553 151.127 419.999C150.542 420.226 149.807 420.411 148.996 420.446C148.212 420.425 147.456 420.267 146.852 420.034C145.601 419.573 144.611 418.99 143.621 418.475C141.67 417.417 139.752 416.558 137.711 415.981C135.67 415.411 133.567 415.144 131.402 415.068C129.147 414.972 126.893 414.862 124.632 414.718C122.371 414.574 120.117 414.416 117.835 414.155C116.687 414.017 115.553 413.873 114.337 413.585C114.034 413.509 113.718 413.427 113.367 413.289C113.285 413.262 113.189 413.214 113.093 413.172C113.003 413.131 112.907 413.083 112.79 413.014L112.625 412.911C112.57 412.877 112.488 412.808 112.426 412.753C112.35 412.685 112.309 412.657 112.22 412.547C112.137 412.451 112.062 412.341 112 412.232C111.855 411.95 111.766 411.586 111.821 411.236C111.842 411.043 111.89 410.94 111.945 410.81C112 410.679 112.062 410.563 112.11 410.501C112.165 410.425 112.22 410.35 112.282 410.274L112.433 410.13C112.543 410.027 112.618 409.965 112.708 409.896C113.051 409.642 113.347 409.498 113.635 409.347C113.697 409.319 113.752 409.292 113.814 409.271L113.862 409.258C115.127 408.873 116.398 408.502 117.656 408.097C118.9 407.657 120.165 407.266 121.395 406.785C123.869 405.865 126.302 404.821 128.673 403.681C131.037 402.52 133.354 401.256 135.567 399.848C136.666 399.134 137.752 398.399 138.783 397.609C139.807 396.84 140.859 395.982 141.704 395.164L141.298 396.153C141.25 394.34 141.202 392.507 141.134 390.652C141.072 388.798 141.024 386.93 140.996 385.048L140.9 379.327V373.51Z" fill="black"/>
<path d="M223.166 256.368C251.056 280.605 270.053 327.432 244.692 340.069C219.331 352.706 209.022 259.802 209.833 259.397C210.637 258.999 223.166 256.368 223.166 256.368Z" fill="#FFFF8E"/>
<path d="M224.459 254.892C230.706 260.331 236.259 266.505 241.104 273.181C245.922 279.878 250.135 287.034 253.324 294.699C254.926 298.531 256.28 302.48 257.262 306.553C258.238 310.626 258.857 314.836 258.816 319.135C258.85 320.207 258.706 321.292 258.644 322.363C258.548 323.441 258.335 324.52 258.17 325.598C257.661 327.734 257.07 329.884 256.025 331.882C255.579 332.913 254.932 333.847 254.328 334.801C254.046 335.296 253.64 335.701 253.297 336.147C252.926 336.573 252.596 337.047 252.19 337.439L250.96 338.613C250.747 338.805 250.554 339.011 250.335 339.183L249.661 339.691L248.3 340.701C247.826 340.996 247.338 341.264 246.85 341.553C245.001 342.72 242.5 343.654 239.929 343.627C238.644 343.627 237.352 343.379 236.17 342.96C234.988 342.535 233.895 341.951 232.919 341.271C230.96 339.911 229.414 338.249 228.067 336.518C226.72 334.781 225.586 332.961 224.555 331.113C222.507 327.397 220.885 323.558 219.455 319.671C218.026 315.784 216.802 311.855 215.703 307.899C213.503 299.987 211.771 291.986 210.314 283.95C209.593 279.932 208.94 275.901 208.362 271.849C208.074 269.823 207.813 267.797 207.572 265.757C207.455 264.734 207.345 263.71 207.242 262.673L207.112 261.093L207.063 260.256L207.057 259.761L207.063 259.424L207.091 259.115C207.105 258.999 207.139 258.827 207.18 258.683C207.022 258.964 207.593 257.337 208.61 256.945L211.07 261.863C212.074 261.505 212.624 259.898 212.459 260.207C212.493 260.098 212.521 259.953 212.527 259.871C212.534 259.83 212.541 259.782 212.541 259.747V259.789V260.056L212.569 260.729L212.672 262.179C212.754 263.161 212.85 264.15 212.953 265.146C213.16 267.13 213.4 269.122 213.661 271.114C214.177 275.097 214.775 279.074 215.448 283.037C216.789 290.963 218.404 298.847 220.465 306.58C221.496 310.447 222.644 314.273 223.971 318.023C225.304 321.759 226.809 325.433 228.644 328.854C229.565 330.557 230.575 332.205 231.709 333.702C232.843 335.193 234.108 336.546 235.503 337.542C236.905 338.537 238.417 339.135 239.964 339.149C241.524 339.169 243.077 338.695 244.678 337.713C245.077 337.487 245.489 337.274 245.881 337.033L246.988 336.223L247.544 335.825C247.73 335.694 247.881 335.522 248.053 335.371L249.056 334.444C249.393 334.135 249.647 333.757 249.95 333.421C250.231 333.064 250.568 332.748 250.795 332.349C251.29 331.58 251.826 330.845 252.197 329.994C253.077 328.38 253.592 326.566 254.053 324.746C254.204 323.812 254.403 322.885 254.499 321.937C254.561 320.983 254.713 320.042 254.685 319.073C254.768 315.22 254.252 311.313 253.379 307.48C252.5 303.641 251.249 299.864 249.764 296.182C246.788 288.806 242.788 281.821 238.197 275.283C233.579 268.758 228.252 262.714 222.294 257.398L224.459 254.892Z" fill="black"/>
<path d="M224.871 367.912C210.308 378.455 189.154 383.853 163.477 382.939C110.02 381.023 85.7319 312.679 87.2164 284.191C87.3264 282.117 89.5463 280.839 91.3676 281.849C92.1579 282.281 93.0239 282.68 93.9586 283.03C101.594 285.853 110.206 283.882 116.082 278.264C118.639 275.819 121.409 273.573 124.433 271.574C125.649 270.771 126.907 270.001 128.213 269.28C134.13 265.99 140.989 263.552 149.071 262.192L211.848 255.091C211.848 255.091 219.174 256.252 228.411 269.651C229.098 270.64 229.792 271.705 230.507 272.845C234.047 278.552 237.806 286.086 241.497 296.024C252.864 328.002 245.407 353.063 224.871 367.912Z" fill="#FFEC00"/>
<path d="M230.507 272.845C224.872 279.198 209.236 292.048 171.965 277.714C161.456 273.676 154.852 269.273 134.027 273.559C130.446 274.294 127.168 272.172 124.433 271.567C131.175 267.11 139.209 263.848 149.072 262.185L218.184 253.47C218.184 253.47 214.177 248.285 228.411 269.644C229.085 270.654 229.799 271.705 230.507 272.845Z" fill="#FFA62B"/>
<path d="M101.89 305.756C102.158 305.578 102.419 305.447 102.687 305.351C106.474 300.702 115.409 296.691 126.756 296.553C126.756 296.553 121.574 292.11 111.8 294.534C116.247 281.945 125.168 275.324 134.027 273.552L128.213 269.267C126.907 269.988 125.649 270.757 124.433 271.561C121.409 273.559 118.639 275.805 116.082 278.25C110.199 283.875 101.588 285.839 93.9587 283.016C93.024 282.666 92.158 282.268 91.3677 281.835C89.5464 280.832 87.3265 282.103 87.2165 284.177C86.8454 291.292 88.0825 300.887 90.9759 311.313C94.756 309.788 98.426 308.044 101.89 305.756Z" fill="#FFA62B"/>
<path d="M127.23 343.552C147.175 332.377 146.838 323.236 142.591 322.013C139.319 321.066 136.604 328.566 130.873 332.377C112.309 338.469 97.4571 319.067 94.4262 312.68C93.3197 313.167 88.2819 314.898 87.1548 315.344C88.6531 319.768 90.5637 324.342 92.8592 328.916C94.0894 331.375 97.9313 333.002 99.3746 335.44C113.402 359.128 134.756 381.903 163.477 382.933C189.154 383.853 210.308 378.455 224.872 367.906C166.749 374.904 143.539 366.037 127.23 343.552Z" fill="#FFA62B"/>
<path d="M224.872 367.912C243.813 332.624 242.975 296.698 228.411 269.651C232.555 275.654 237.071 284.109 241.49 296.025C252.864 328.002 245.407 353.064 224.872 367.912Z" fill="#FFFFB6"/>
<path d="M149.429 264.314C142.439 265.537 135.669 267.783 129.546 271.196C126.494 272.913 123.615 274.926 120.927 277.165C120.267 277.741 119.601 278.305 118.955 278.902L117.999 279.802L117.477 280.283L116.914 280.791C115.395 282.13 113.704 283.284 111.896 284.211C108.281 286.066 104.178 287.02 100.075 286.842C98.0271 286.759 95.9859 286.402 94.0272 285.784C93.0444 285.482 92.089 285.118 91.1475 284.671C90.9138 284.561 90.6801 284.445 90.4464 284.321L90.0959 284.136C90.0753 284.136 90.0753 284.136 90.0616 284.122C90.0272 284.115 90.0272 284.115 90.0066 284.122C89.9722 284.122 89.8897 284.184 89.876 284.232C89.8691 284.245 89.8623 284.252 89.8623 284.273C89.8554 284.28 89.8554 284.287 89.8554 284.3C89.8554 284.321 89.8485 284.287 89.8485 284.438L89.8279 285.729L89.8073 287.02L89.8554 288.325C89.876 289.197 89.9104 290.07 89.9997 290.949C90.1097 292.7 90.3434 294.451 90.5633 296.21C90.8451 297.961 91.0994 299.712 91.4705 301.457C94.2746 315.406 99.5391 328.956 106.79 341.188C110.405 347.315 114.659 353.036 119.45 358.201C121.821 360.81 124.425 363.166 127.092 365.439L129.168 367.047C129.869 367.569 130.535 368.139 131.271 368.606C132.728 369.56 134.13 370.604 135.663 371.428C141.649 374.938 148.164 377.534 154.975 378.715L157.539 379.1L158.817 379.292C159.243 379.34 159.676 379.354 160.109 379.388C161.841 379.491 163.525 379.677 165.339 379.656C168.913 379.739 172.48 379.684 176.033 379.491C183.14 379.114 190.198 378.159 197.043 376.483C197.896 376.27 198.768 376.106 199.607 375.858L202.143 375.13L203.408 374.766L204.652 374.34L207.14 373.482C207.971 373.2 208.761 372.836 209.579 372.52C210.383 372.177 211.208 371.889 211.999 371.518C213.566 370.769 215.194 370.11 216.7 369.244C217.462 368.825 218.239 368.434 218.988 368.001L221.194 366.628C221.559 366.394 221.937 366.181 222.294 365.934L223.346 365.178C224.04 364.67 224.761 364.183 225.449 363.654C226.761 362.534 228.177 361.525 229.394 360.295C230.012 359.691 230.686 359.141 231.263 358.503L233.022 356.6C233.325 356.291 233.593 355.955 233.861 355.611L234.665 354.595C235.201 353.915 235.758 353.249 236.218 352.514L237.668 350.357L238.954 348.098C239.16 347.72 239.393 347.349 239.586 346.958L240.136 345.776C240.493 344.986 240.899 344.21 241.215 343.4C241.82 341.765 242.493 340.151 242.926 338.448L243.304 337.191L243.497 336.559L243.641 335.914L244.225 333.338L244.369 332.693L244.466 332.04L244.665 330.728L244.864 329.417C244.94 328.977 244.995 328.537 245.022 328.098C245.146 326.326 245.359 324.554 245.332 322.768L245.359 320.083L245.222 317.397C245.174 315.598 244.919 313.819 244.754 312.02C244.686 311.12 244.527 310.227 244.383 309.334L243.957 306.649C243.627 304.87 243.208 303.105 242.83 301.319L241.455 296.024L241.545 295.99C242.218 297.686 242.912 299.383 243.565 301.093C244.129 302.837 244.741 304.568 245.263 306.333C246.239 309.87 247.173 313.462 247.641 317.143C248.665 324.472 248.692 332.088 246.995 339.499C246.624 341.36 246.005 343.16 245.442 344.98C245.146 345.886 244.754 346.758 244.411 347.644L243.875 348.977C243.689 349.416 243.462 349.835 243.256 350.268L241.978 352.843L240.514 355.316C240.046 356.161 239.483 356.93 238.926 357.72L238.095 358.901C237.82 359.299 237.545 359.691 237.229 360.048L235.4 362.273C234.796 363.022 234.095 363.681 233.442 364.389C232.15 365.817 230.686 367.06 229.256 368.351C228.521 368.963 227.744 369.533 226.988 370.123L225.847 371.003C225.462 371.291 225.057 371.545 224.665 371.813L222.28 373.413C221.469 373.915 220.638 374.382 219.813 374.869C213.215 378.757 205.971 381.291 198.658 383.125C191.311 384.876 183.834 385.817 176.37 386.16C172.638 386.332 168.899 386.359 165.181 386.25C163.339 386.256 161.394 386.044 159.49 385.899C159.009 385.858 158.535 385.831 158.054 385.769L156.631 385.542L153.786 385.082C146.212 383.681 138.989 380.714 132.453 376.779C130.783 375.845 129.257 374.704 127.676 373.633C126.879 373.111 126.157 372.493 125.401 371.909C124.659 371.319 123.903 370.742 123.168 370.137C120.309 367.651 117.532 365.069 115.024 362.253C109.958 356.676 105.539 350.563 101.814 344.094C94.3433 331.161 89.0513 317.082 86.2678 302.425C85.9035 300.598 85.6492 298.737 85.3743 296.89C85.1613 295.028 84.9345 293.167 84.8382 291.278C84.7558 290.344 84.7352 289.397 84.7145 288.442L84.6802 287.02L84.7145 285.585L84.7558 284.149C84.7558 284.067 84.7764 283.82 84.8039 283.62C84.8245 283.414 84.8657 283.208 84.9207 283.002C85.0169 282.59 85.175 282.192 85.3812 281.814C86.1853 280.303 87.7179 279.252 89.4361 279.067C90.2884 278.971 91.1818 279.101 91.9653 279.424C92.1578 279.507 92.3502 279.603 92.5289 279.692L92.7832 279.829L93.3124 280.097C94.0203 280.447 94.7832 280.743 95.5529 280.983C97.0856 281.485 98.68 281.78 100.302 281.869C103.532 282.055 106.831 281.375 109.766 279.925C111.237 279.204 112.611 278.305 113.862 277.24L114.323 276.835L114.556 276.636L114.817 276.402L115.869 275.454C116.57 274.823 117.298 274.225 118.027 273.621C120.968 271.251 124.123 269.129 127.45 267.336C134.116 263.765 141.408 261.512 148.776 260.352L149.429 264.314Z" fill="black"/>
<path d="M260.61 222.495C259.696 232.99 252.239 246.575 236.143 255.702C222.418 263.497 202.404 268.058 174.824 264.706C125.395 263.298 109.292 236.98 109.017 210.174C108.728 182.304 124.653 151.198 146.879 141.913C165.092 134.296 174.989 131.837 185.085 125.422C187.319 124.001 189.545 122.4 191.889 120.498C197.958 119.688 194.989 128.98 190.817 133.149C211.566 132.881 248.074 145.134 251.043 191.452C251.847 199.529 262.218 203.876 260.61 222.495Z" fill="#FFEC00"/>
<path d="M260.61 222.495C259.696 232.99 252.239 246.575 236.143 255.702C235.627 254.184 236.335 252.399 238.933 250.318C251.765 240.009 257.016 218.704 247.724 206.589C238.425 194.467 243.579 191.342 241.689 185.078C227.875 144.282 193.958 141.15 177.889 142.764C177.889 142.764 183.442 136.095 183.827 127.448C183.827 127.448 184.288 126.7 185.078 125.422C187.312 124.001 189.539 122.4 191.882 120.498C197.951 119.688 194.982 128.98 190.81 133.149C211.559 132.881 248.067 145.134 251.036 191.452C251.847 199.529 262.218 203.876 260.61 222.495Z" fill="#FFFFB6"/>
<path d="M124.165 162.881C118.275 193.56 97.9313 252.323 182.412 258.422C218.494 260.277 238.033 253.532 251.332 238.395C251.332 238.395 229.799 284.17 149.079 262.193C107.56 247.083 97.7182 200.875 124.165 162.881Z" fill="#FFA62B"/>
<path d="M174.975 266.066C170.191 266.622 165.353 266.657 160.521 266.272C155.69 265.901 150.872 265.029 146.171 263.635C141.47 262.241 136.907 260.297 132.597 257.845C130.426 256.643 128.377 255.221 126.377 253.731C124.426 252.179 122.508 250.558 120.797 248.731C117.292 245.146 114.398 240.957 112.171 236.472C111.086 234.212 110.165 231.884 109.388 229.508C108.659 227.124 108.027 224.707 107.601 222.255C106.728 217.365 106.44 212.392 106.659 207.482C106.838 202.564 107.532 197.695 108.577 192.908C110.694 183.354 114.295 174.137 119.367 165.738C121.89 161.535 124.831 157.558 128.151 153.904C129.841 152.098 131.601 150.353 133.491 148.739C135.395 147.139 137.388 145.628 139.505 144.289C141.628 142.963 143.869 141.789 146.192 140.814C148.405 139.9 150.618 138.98 152.838 138.101C157.278 136.329 161.752 134.639 166.171 132.929C170.59 131.226 174.913 129.447 179.002 127.332C183.078 125.203 186.886 122.648 190.473 119.736L190.48 119.729L190.549 119.674C190.892 119.406 191.305 119.248 191.71 119.2C192.631 119.09 193.751 119.035 195.043 119.598C195.676 119.859 196.287 120.347 196.748 120.89C197.208 121.453 197.483 122.057 197.662 122.62C197.999 123.753 197.978 124.722 197.903 125.601C197.813 126.48 197.635 127.284 197.408 128.053C196.954 129.584 196.308 130.972 195.545 132.304C194.769 133.63 193.868 134.887 192.72 136.047L192.714 136.054L190.927 131.83C195.621 131.789 200.274 132.304 204.823 133.266C209.366 134.248 213.827 135.656 218.074 137.572C220.212 138.499 222.273 139.598 224.301 140.766C226.294 141.981 228.253 143.259 230.095 144.701C233.806 147.551 237.174 150.848 240.081 154.515C245.888 161.878 249.689 170.648 251.648 179.666C252.108 181.926 252.541 184.192 252.809 186.479L253.036 188.189L253.18 189.893L253.325 191.596L253.4 192.441L253.517 193.066C253.806 194.769 254.754 196.555 255.895 198.402C257.043 200.25 258.321 202.207 259.4 204.329C261.606 208.546 262.844 213.388 262.96 218.107C262.988 219.288 263.043 220.469 262.94 221.637C262.878 222.804 262.837 223.972 262.644 225.174C262.301 227.55 261.682 229.851 260.871 232.069C259.256 236.513 256.823 240.565 253.943 244.212C252.479 246.018 250.926 247.749 249.215 249.308C248.383 250.112 247.49 250.847 246.617 251.602C245.703 252.303 244.83 253.058 243.875 253.711C240.143 256.41 236.136 258.676 231.95 260.496C227.751 262.296 223.401 263.662 218.995 264.686C210.171 266.753 201.098 267.337 192.15 266.973C194.391 266.574 196.617 266.258 198.817 265.846L200.466 265.565C201.016 265.462 201.559 265.338 202.109 265.228C203.201 265.002 204.294 264.837 205.373 264.569L208.604 263.827L211.799 263.017C212.858 262.721 213.896 262.385 214.954 262.103C216.006 261.808 217.03 261.444 218.067 261.121C226.301 258.381 234.012 254.535 240.624 249.425C243.985 246.939 246.912 243.958 249.545 240.785C252.115 237.571 254.273 234.013 255.655 230.215C256.356 228.326 256.878 226.383 257.167 224.439C257.325 223.491 257.366 222.447 257.428 221.417C257.524 220.38 257.476 219.363 257.462 218.347C257.373 214.26 256.411 210.435 254.569 206.829C253.661 205.002 252.521 203.237 251.304 201.252C250.115 199.274 248.754 196.96 248.225 194L248.053 192.887L247.985 192.063L247.854 190.428L247.723 188.794L247.517 187.194C247.284 185.051 246.885 182.942 246.473 180.834C244.693 172.455 241.249 164.453 236.026 157.743C225.579 144.282 208.15 136.713 190.989 136.604C189.71 136.597 188.679 135.553 188.686 134.275C188.693 133.657 188.94 133.094 189.332 132.682L189.339 132.675C190.885 131.109 192.184 128.863 192.851 126.7C193.016 126.157 193.133 125.622 193.181 125.141C193.236 124.66 193.202 124.22 193.14 124.014C193.105 123.918 193.078 123.877 193.085 123.884C193.078 123.898 193.14 123.905 193.105 123.905C193.098 123.877 192.762 123.815 192.329 123.877L193.449 123.389L193.442 123.396C189.71 126.549 185.648 129.426 181.312 131.768C176.961 134.083 172.473 135.979 168.033 137.751C163.573 139.488 159.147 141.171 154.755 142.943C152.556 143.822 150.377 144.728 148.199 145.642C146.157 146.514 144.199 147.544 142.309 148.733C134.762 153.547 128.639 160.649 123.938 168.492C119.216 176.363 115.835 185.078 113.876 194.068C112.9 198.567 112.295 203.134 112.089 207.702C111.862 212.276 112.116 216.836 112.886 221.3C114.412 230.222 118.316 238.663 124.453 245.249C125.958 246.925 127.656 248.408 129.395 249.858C131.188 251.238 133.023 252.577 134.996 253.717C138.9 256.066 143.133 257.9 147.504 259.397C151.882 260.895 156.398 262.035 160.989 263.037C165.58 264.006 170.246 264.837 174.975 265.654V266.066Z" fill="black"/>
<path d="M138.405 324.514C138.33 324.802 138.261 325.09 138.178 325.379C136.048 333.105 120.804 341.821 107.862 337.364C101.519 335.18 96.5705 332.13 92.8592 328.916C84.3782 321.595 83.0105 315.008 85.2648 314.266C102.041 311.478 97.8626 298.511 126.763 296.554L139.299 315.942C139.299 315.949 139.546 319.83 138.405 324.514Z" fill="#FFEC00"/>
<path d="M138.405 324.513C138.33 324.802 138.261 325.09 138.178 325.379C136.048 333.105 120.804 341.821 107.862 337.363C101.519 335.179 96.5705 332.13 92.8592 328.916C90.5705 324.335 88.6599 319.768 87.1616 315.344C88.2819 314.898 93.3265 313.16 94.4262 312.673C97.4639 319.053 112.316 338.469 130.879 332.37C134.137 330.2 136.426 326.828 138.405 324.513Z" fill="#FFA62B"/>
<path d="M110.969 297.131C108.866 298.765 107.051 300.496 105.319 302.371C104.44 303.291 103.567 304.225 102.694 305.187C101.821 306.148 100.893 307.069 99.9449 308.023C98.0686 309.94 95.8968 311.698 93.4364 313.264C90.9553 314.782 88.11 315.915 85.1547 316.567L85.732 316.43C86.0138 316.354 86.2955 316.224 86.5292 316.045C86.756 315.887 86.9553 315.729 87.1134 315.516L87.2234 315.365L87.299 315.269C87.3471 315.2 87.3952 315.132 87.4296 315.056C87.4708 314.988 87.4983 314.898 87.5258 314.836C87.5464 314.802 87.5601 314.768 87.5808 314.727C87.6082 314.658 87.6289 314.555 87.6357 314.514C87.6495 314.493 87.6564 314.472 87.6564 314.452C87.6564 314.438 87.6564 314.431 87.6564 314.418C87.6564 314.418 87.6632 314.431 87.6632 314.438C87.6701 314.452 87.6701 314.466 87.6701 314.479C87.6907 314.672 87.8076 315.159 87.9794 315.633C88.3368 316.622 88.8385 317.762 89.5051 318.834C90.7972 321.025 92.4673 323.14 94.3436 325.09C96.213 327.062 98.3367 328.854 100.653 330.427C102.976 331.986 105.491 333.318 108.117 334.438C113.003 336.704 118.776 336.663 124.281 335.186C127.031 334.417 129.69 333.222 132.123 331.649C133.333 330.853 134.467 329.939 135.47 328.888C136.467 327.838 137.353 326.67 137.91 325.303L138.487 325.461C138.749 327.185 138.268 328.978 137.512 330.523C137.14 331.313 136.652 332.013 136.171 332.728C135.649 333.401 135.079 334.033 134.494 334.644C133.292 335.832 131.924 336.828 130.481 337.659C129.051 338.524 127.525 339.204 125.958 339.774C122.811 340.866 119.45 341.34 116.11 341.217C114.44 341.148 112.776 340.969 111.141 340.64L109.924 340.351C109.519 340.248 109.12 340.118 108.721 340.001C107.931 339.747 107.127 339.445 106.419 339.156C100.57 336.855 95.0858 333.524 90.6117 329.081C88.3849 326.862 86.3918 324.39 84.8385 321.615C84.0619 320.228 83.4021 318.765 82.9485 317.185C82.7354 316.389 82.5568 315.571 82.5361 314.658C82.543 314.191 82.5499 313.724 82.7423 313.161C82.7767 313.03 82.8317 312.893 82.921 312.742C83.0104 312.597 83.0585 312.46 83.2028 312.316C83.3334 312.179 83.4639 312.041 83.622 311.931C83.7938 311.828 83.9794 311.739 84.1581 311.67C84.1993 311.657 84.2474 311.643 84.2887 311.636H84.3162C86.7629 311.299 89.1546 310.551 91.4089 309.452C93.67 308.36 95.7937 306.938 97.8556 305.414C99.9243 303.889 101.945 302.261 104.069 300.764C106.192 299.267 108.433 297.893 110.859 296.959L110.969 297.131Z" fill="black"/>
<path d="M251.944 216.774C251.092 220.16 247.799 223.491 241.669 225.641C241.903 229.239 240.844 233.092 228.968 238.264C203.724 249.253 168.817 233.498 168.817 218.841C168.817 217.152 169.278 215.476 170.274 213.862C170.281 213.134 170.618 212.433 171.491 211.863C172.219 211.376 173.347 210.977 174.982 210.73C201.642 206.616 206.391 193.793 217.717 194.082C218.425 194.096 219.167 194.164 219.93 194.295C226.624 195.401 228.831 202.88 240.686 205.009C245.428 205.861 248.844 207.921 250.659 210.469V210.476C252.033 212.392 252.494 214.597 251.944 216.774Z" fill="#FF8324"/>
<path d="M241.669 225.641C241.71 226.294 241.71 226.946 241.614 227.619C241.174 230.675 238.7 234.034 228.968 238.265C210.48 246.314 186.803 240.009 175.463 230.305C171.319 226.761 168.824 222.764 168.824 218.842C168.824 217.152 169.285 215.477 170.281 213.863C170.288 213.135 170.625 212.434 171.498 211.864C173.223 212.001 174.364 212.235 174.364 212.235C204.274 235.552 249.421 218.258 250.672 210.47C254.15 215.374 251.765 222.104 241.669 225.641Z" fill="#B8551B"/>
<path d="M241.607 227.619C241.167 230.675 238.693 234.034 228.961 238.264C210.473 246.314 186.797 240.009 175.457 230.304C194.336 238.264 215.669 241.939 241.49 227.488L241.607 227.619Z" fill="#FF8324"/>
<path d="M251.944 216.774C250.184 220.016 248.501 222.282 248.501 219.143C248.501 212.543 244.322 211.067 236.638 209.041C228.961 207.021 220.075 202.447 217.71 194.082C218.418 194.096 219.161 194.164 219.923 194.295C226.618 195.401 228.824 202.88 240.679 205.009C245.422 205.861 248.837 207.921 250.652 210.469V210.476C252.033 212.392 252.494 214.597 251.944 216.774Z" fill="white"/>
<path d="M240.425 206.445C235.957 205.73 231.517 203.801 227.882 201.101C226.06 199.783 224.39 198.402 222.775 197.434C221.957 196.96 221.153 196.603 220.315 196.411C220.109 196.356 219.896 196.321 219.683 196.287L218.975 196.198C218.5 196.115 218.026 196.115 217.552 196.081C216.604 196.074 215.662 196.129 214.727 196.294C213.793 196.472 212.865 196.726 211.937 197.07C210.081 197.757 208.239 198.718 206.384 199.769C202.679 201.878 198.872 204.171 194.844 206.033C190.824 207.915 186.645 209.48 182.384 210.675C180.253 211.287 178.102 211.795 175.937 212.248C174.872 212.461 173.704 212.681 172.838 212.901C171.93 213.141 171.085 213.478 170.57 213.897C170.308 214.103 170.137 214.309 170.006 214.556C169.944 214.686 169.882 214.824 169.827 214.995C169.772 215.153 169.724 215.387 169.69 215.545C169.58 216.362 169.546 217.372 169.642 218.285C169.82 220.153 170.453 221.994 171.394 223.704C173.305 227.131 176.35 230.002 179.752 232.296C186.631 236.884 194.906 239.411 203.208 240.201C211.531 240.964 220.054 239.851 227.703 236.602C229.634 235.785 231.545 234.872 233.332 233.862C235.105 232.846 236.803 231.699 238.019 230.38C238.624 229.721 239.084 229.034 239.346 228.326C239.476 227.969 239.566 227.605 239.614 227.214C239.641 227.021 239.648 226.815 239.655 226.602V226.28V226.115C239.641 225.799 239.696 225.455 239.806 225.146C240.033 224.521 240.507 223.999 241.098 223.711C241.174 223.677 241.249 223.642 241.325 223.615L241.387 223.594L241.476 223.56L241.655 223.498C241.895 223.416 242.129 223.326 242.363 223.23C242.83 223.045 243.284 222.846 243.737 222.64C244.631 222.214 245.49 221.733 246.28 221.19C247.847 220.098 249.201 218.773 249.902 217.221C250.617 215.682 250.631 213.958 249.888 212.386C249.16 210.806 247.758 209.432 246.067 208.471C244.363 207.468 242.425 206.836 240.425 206.445ZM241.05 202.99C243.346 203.464 245.634 204.22 247.737 205.463C249.833 206.685 251.751 208.485 252.857 210.868C253.407 212.049 253.717 213.368 253.717 214.686C253.723 216.005 253.421 217.303 252.899 218.457C251.84 220.785 250.012 222.468 248.136 223.807C247.181 224.473 246.177 225.037 245.146 225.531C244.631 225.771 244.108 226.005 243.586 226.211C243.325 226.321 243.064 226.417 242.796 226.513L242.596 226.589L242.5 226.623L242.459 226.637L242.514 226.609C242.665 226.534 242.789 226.396 242.851 226.232C242.878 226.149 242.892 226.06 242.885 225.984L242.892 226.211C242.899 226.362 242.892 226.513 242.892 226.664C242.885 226.973 242.871 227.282 242.83 227.591C242.761 228.216 242.617 228.848 242.397 229.446C241.964 230.655 241.242 231.705 240.438 232.585C238.816 234.356 236.906 235.62 234.974 236.753C233.029 237.873 231.05 238.834 229.016 239.714C220.817 243.244 211.744 244.597 202.851 243.91C198.398 243.56 193.978 242.729 189.69 241.389C185.408 240.036 181.25 238.196 177.415 235.689C173.607 233.182 170.04 230.002 167.594 225.751C166.391 223.635 165.518 221.225 165.243 218.67C165.174 218.031 165.147 217.392 165.147 216.747C165.161 216.424 165.161 216.108 165.188 215.772C165.223 215.421 165.25 215.085 165.298 214.728C165.381 214.309 165.449 214 165.573 213.601C165.69 213.217 165.855 212.805 166.061 212.406C166.487 211.596 167.119 210.868 167.779 210.346C169.126 209.288 170.453 208.849 171.69 208.491C173.009 208.148 173.924 207.983 174.982 207.763L178.068 207.097C179.092 206.85 180.116 206.623 181.126 206.342C185.188 205.277 189.147 203.862 192.989 202.145C196.851 200.435 200.507 198.313 204.37 196.191C206.308 195.14 208.336 194.11 210.555 193.32C211.669 192.928 212.83 192.626 214.026 192.413C215.222 192.214 216.445 192.152 217.655 192.187C218.253 192.235 218.865 192.255 219.449 192.358L220.342 192.489C220.658 192.551 220.975 192.606 221.284 192.695C222.535 193.011 223.703 193.567 224.741 194.199C226.803 195.497 228.452 196.946 230.122 198.176C231.786 199.412 233.49 200.456 235.311 201.232C237.126 202.07 239.057 202.626 241.05 202.99Z" fill="black"/>
<path d="M241.923 227.564C239.078 228.876 236.212 229.714 233.318 230.415C230.425 231.108 227.511 231.623 224.576 232.001C218.714 232.757 212.796 232.99 206.885 232.654C200.975 232.317 195.057 231.383 189.332 229.542C183.635 227.702 178.075 224.879 173.552 220.641C172.714 219.858 172.673 218.547 173.456 217.709C174.24 216.871 175.552 216.83 176.391 217.613L176.398 217.619C180.329 221.335 185.319 223.931 190.59 225.655C195.882 227.379 201.477 228.299 207.112 228.636C212.748 228.972 218.446 228.773 224.061 228.073C226.872 227.715 229.662 227.235 232.39 226.589C235.119 225.944 237.827 225.14 240.246 224.034L240.287 224.014C241.263 223.567 242.418 223.993 242.865 224.975C243.325 225.964 242.899 227.118 241.923 227.564Z" fill="black"/>
<path d="M215.937 208.471C210.576 208.766 208.191 204.721 209.751 202.324C212.129 198.691 219.057 208.293 215.937 208.471Z" fill="black"/>
<path d="M163.796 212.504C164.094 209.446 158.682 206.418 151.708 205.74C144.734 205.062 138.839 206.992 138.541 210.05C138.244 213.108 143.656 216.136 150.63 216.814C157.604 217.492 163.499 215.562 163.796 212.504Z" fill="#FF8EB2"/>
<path d="M177.896 198.677C184.296 198.677 189.484 193.492 189.484 187.097C189.484 180.702 184.296 175.518 177.896 175.518C171.496 175.518 166.309 180.702 166.309 187.097C166.309 193.492 171.496 198.677 177.896 198.677Z" fill="black"/>
<path d="M184.199 187.749C186.29 187.749 187.985 186.055 187.985 183.965C187.985 181.875 186.29 180.181 184.199 180.181C182.107 180.181 180.412 181.875 180.412 183.965C180.412 186.055 182.107 187.749 184.199 187.749Z" fill="white"/>
<path d="M233.483 194.062C238.239 194.062 242.095 190.209 242.095 185.456C242.095 180.703 238.239 176.851 233.483 176.851C228.727 176.851 224.872 180.703 224.872 185.456C224.872 190.209 228.727 194.062 233.483 194.062Z" fill="black"/>
<path d="M235.689 186.672C237.583 186.672 239.119 185.137 239.119 183.245C239.119 181.352 237.583 179.817 235.689 179.817C233.795 179.817 232.26 181.352 232.26 183.245C232.26 185.137 233.795 186.672 235.689 186.672Z" fill="white"/>
</svg>
