<svg width="894" height="393" viewBox="0 0 894 393" fill="none" xmlns="http://www.w3.org/2000/svg">
<path d="M195.345 377.828C254.077 377.828 301.689 372.051 301.689 364.924C301.689 357.797 254.077 352.02 195.345 352.02C136.612 352.02 89 357.797 89 364.924C89 372.051 136.612 377.828 195.345 377.828Z" fill="#FFA62B"/>
<path d="M275.021 361.218C261.677 359.365 249.856 350.167 252.961 338.553L273.572 261.449C285.774 215.812 287.702 190.524 290.418 143.638C287.86 138.187 287.703 133.116 290.244 127.921C293.687 120.874 296.195 111.435 302.992 106.629C320.764 94.072 359.554 95.7347 379.47 100.946C389.428 103.552 397.209 109.814 402.772 118.4C415.238 137.624 413.061 166.196 408.881 188.249C403.128 218.608 395.272 247.568 387.119 277.422C382.516 294.289 378.452 310.246 370.753 325.83C360.15 347.296 339.124 360.201 315.516 363.476C302.056 365.354 289.019 363.162 275.021 361.218ZM343.884 300.319C354.695 260.58 363.295 220.941 370.381 180.374C371.449 174.237 373.841 148.204 365.836 147.534C356.226 146.732 346.789 147.361 337.452 148.874C336.434 162.904 335.291 175.651 333.321 189.499C326.658 236.269 320.077 279.697 302.048 324.217C308.529 324.59 314.075 323.506 320.093 321.868C334.886 317.831 338.147 321.413 343.884 300.319Z" fill="black"/>
<path d="M613.806 304.555C620.329 296.614 627 288.731 629.202 279.21L633.407 261.036C635.253 253.062 644.773 245.6 653.158 248.653C661.196 251.581 668.141 257.04 675.02 261.979C678.405 264.411 680.367 268.787 679.589 272.997C677.826 282.527 674.929 291.254 670.285 299.65C657.579 322.596 637.083 350.217 611.38 359.134C603.251 361.955 593.815 362.17 585.388 361.004C573.592 359.374 563.758 352.93 555.961 344.253C544.09 331.051 538.983 314.506 537.874 296.796C534.703 246.361 541.905 198.259 565.513 153.334C576.787 131.876 592.821 115.481 614.195 104.429C622.414 100.177 629.947 97.7123 639.508 98.2086C658.853 99.2095 676.808 107.515 687.18 124.009C694.522 135.681 700.78 148.701 698.976 162.937C696.691 180.954 685.475 196.199 672.214 207.747C667.048 212.247 661.519 215.506 654.648 214.878C635.998 213.182 630.063 188.142 622.075 173.584C621.065 171.747 615.726 172.856 613.905 173.857C605.288 178.621 599.303 186.943 595.545 196.084C580.62 232.381 571.316 269.788 581.067 308.633C582.756 315.35 588.426 318.551 595.106 316.616C601.977 314.63 608.88 310.552 613.806 304.555Z" fill="black"/>
<path d="M443.358 113.875C447.969 110.368 456.164 108.523 459.251 114.066C464.665 123.785 464.433 135.275 462.48 146.252C456.486 180.002 452.397 213.033 452.215 247.337C452.149 259.406 453.291 294.248 462.504 302.346C476.403 288.755 487.478 254.988 492.9 236.881C502.991 203.164 509.133 169.232 513.429 134.192C514.638 124.298 516.293 115.166 521.691 107.018C525.647 101.037 531.922 95.4866 539.529 96.6861C544.579 97.4802 547.84 103.511 547.906 108.697C548.651 168.802 533.197 246.576 508.074 301.519C496.799 326.161 481.999 354.079 455.684 364.411C444.335 368.862 432.887 365.247 426.446 354.931C419.766 344.227 415.379 332.407 412.978 319.717C402.499 264.386 414.551 190.599 429.849 136.524C432.357 127.615 435.511 119.84 443.358 113.875Z" fill="black"/>
<path d="M793.856 339.653L778.765 349.538C773.385 353.062 766.158 352.21 762.748 345.692C751.059 323.341 743.535 297.375 730.117 274.436L711.434 350.324C709.778 357.049 703.239 361.4 696.575 361.607L678.952 362.153C671.858 362.376 670.335 353.807 671.75 348.198L690.855 272.534C697.246 247.229 701.583 222.579 705.002 196.695C708.404 170.961 709.099 145.921 711.003 120.022C712.642 113.098 732.062 93.6669 741.076 101.807C745.77 106.05 746.267 113.057 746.755 119.269C748.783 144.854 746.507 169.067 745.406 196.257C758.427 180.234 768.526 164.244 780.189 148.453L804.79 115.149C810.229 104.694 817.555 105.463 828.382 107.779C833.738 108.921 835.112 113.313 834.268 118.409C829.864 126.366 825.493 133.538 820.51 141.355C801.032 171.912 781.604 201.923 760.629 231.215L799.766 320.611C802.961 327.882 799.865 335.095 793.856 339.653Z" fill="black"/>
<path d="M264.298 359.843C246.948 362.284 240.5 369.522 236.369 369.522C232.222 369.522 227.769 363.384 215.509 363.036C200.94 362.606 195.626 362.83 199.028 361.125C212.215 354.921 221.511 347.501 221.511 347.501C221.511 347.501 221.511 333.877 221.511 322.445H233.323C233.323 322.445 233.323 338.013 233.323 347.501C248.778 358.131 264.787 355.716 264.298 359.843Z" fill="#FF8324"/>
<path d="M236.369 369.522C232.222 369.522 227.769 363.384 215.509 363.036C200.94 362.606 195.626 362.83 199.028 361.125C212.215 354.921 221.511 347.501 221.511 347.501C221.511 347.501 221.511 333.877 221.511 322.445H233.323C233.323 322.445 233.199 338.998 233.199 348.486C231.179 347.146 232.57 348.999 231.179 351.191C225.045 360.803 241.717 363.16 236.369 369.522Z" fill="#B8551B"/>
<path d="M224.151 325.076C224.143 328.617 223.994 332.174 223.696 335.871C223.398 339.569 222.959 343.432 222.504 347.502L222.446 348.056L222.165 348.246C217.852 352.109 213.158 355.418 208.125 358.272C205.609 359.695 203.002 360.977 200.295 362.069L198.242 362.838L198.126 362.879C198.176 362.871 198.217 362.846 198.267 362.821C198.374 362.772 198.482 362.681 198.565 362.565C198.738 362.333 198.78 362.069 198.747 361.862C198.714 361.655 198.598 361.415 198.358 361.25C198.242 361.167 198.109 361.117 197.985 361.093C197.927 361.084 197.886 361.076 197.828 361.076C197.803 361.076 197.902 361.076 197.927 361.076C199.376 361.026 200.824 361.026 202.248 361.026C205.104 361.043 207.943 361.084 210.783 361.134L215.037 361.217C216.478 361.258 218.001 361.324 219.474 361.523C220.964 361.705 222.438 362.011 223.903 362.391C225.351 362.813 226.792 363.285 228.166 363.889C229.54 364.476 230.873 365.146 232.131 365.808C233.373 366.461 234.606 367.123 235.566 367.355L235.914 367.437L236.212 367.454L236.361 367.47L236.493 367.446C236.584 367.429 236.659 367.446 236.758 367.413C237.114 367.33 237.603 367.123 238.157 366.817C239.275 366.196 240.574 365.394 241.882 364.716C244.515 363.318 247.288 362.226 250.085 361.374C252.883 360.514 255.706 359.81 258.545 359.256L260.673 358.834L262.8 358.479L264.787 358.148C264.514 358.197 264.133 358.437 263.967 358.719C263.785 359 263.752 359.24 263.76 359.447C263.777 359.653 263.843 359.868 263.992 360.075C264.067 360.174 264.166 360.274 264.274 360.348C264.332 360.381 264.381 360.414 264.439 360.439L264.514 360.464L264.456 360.439C259.696 358.495 253.753 358.222 248.19 356.344C245.4 355.459 242.669 354.343 240.094 352.978C237.536 351.563 235.119 349.958 232.859 348.18L232.843 348.172L232.545 348.056L232.479 347.485L229.598 322.446V322.429L233.323 326.151C231.792 326.151 230.335 326.069 228.845 325.87C227.355 325.688 225.807 325.39 224.151 325.076ZM219.665 320.601C221.718 320.253 223.903 319.856 226.204 319.526C228.505 319.186 230.914 318.913 233.323 318.731L237.015 318.45L237.048 322.454V322.47V347.51L235.434 344.441L235.45 344.449C237.487 346.186 239.697 347.717 241.99 349.073C244.316 350.38 246.758 351.481 249.332 352.308C251.898 353.176 254.58 353.755 257.362 354.326C260.135 354.93 263.09 355.468 265.979 356.642L266.045 356.667L266.244 356.758C266.384 356.824 266.517 356.899 266.641 356.998C266.898 357.18 267.129 357.403 267.312 357.651C267.676 358.156 267.858 358.719 267.883 359.289C267.899 359.86 267.775 360.464 267.394 361.035C267.022 361.606 266.335 362.052 265.706 362.176L263.496 362.557L261.426 362.904L259.381 363.318C256.65 363.856 253.96 364.534 251.344 365.353C250.028 365.758 248.745 366.221 247.486 366.718C246.236 367.247 245.011 367.81 243.836 368.463C242.627 369.1 241.535 369.803 240.169 370.572C239.482 370.945 238.662 371.367 237.611 371.606C236.543 371.805 235.384 371.755 234.507 371.499C232.669 371.011 231.394 370.25 230.12 369.613C228.861 368.968 227.661 368.38 226.436 367.867C224.002 366.85 221.494 366.18 218.887 365.89C217.57 365.725 216.304 365.692 214.922 365.651L210.675 365.568C207.844 365.518 205.013 365.477 202.207 365.46C200.8 365.452 199.417 365.46 198.06 365.51H197.869C197.654 365.51 197.447 365.493 197.224 365.452C196.768 365.369 196.297 365.187 195.883 364.906C195.038 364.335 194.55 363.458 194.409 362.598C194.26 361.738 194.442 360.745 195.047 359.918C195.353 359.513 195.734 359.19 196.139 358.958C196.33 358.851 196.528 358.768 196.727 358.694L196.876 358.644L198.763 357.974C201.271 357.023 203.73 355.865 206.13 354.574C208.531 353.276 210.874 351.844 213.15 350.298C215.41 348.767 217.728 347.146 219.764 345.483L218.837 347.51C218.845 343.018 218.92 338.477 219.077 333.969C219.218 329.452 219.441 324.985 219.665 320.601Z" fill="black"/>
<path d="M211.776 363.848C183.822 366.172 177.299 372.045 173.226 373.054C172.837 373.162 172.457 373.212 172.092 373.212C167.962 373.212 163.492 367.115 151.232 366.726C128.593 365.99 126.805 364.691 130.215 362.996C153.997 356.345 164.543 345.724 164.543 345.724C164.543 345.724 164.543 332.099 164.543 320.659H176.347C176.347 320.659 176.347 336.227 176.347 345.724C191.818 356.345 219.325 363.484 211.776 363.848Z" fill="#FF8324"/>
<path d="M176.355 345.724C173.64 351.481 168.185 351.646 175.834 365.428C178.102 369.522 171.447 370.258 171.612 370.78C171.223 370.887 172.465 373.212 172.101 373.212C167.97 373.212 163.5 367.115 151.241 366.726C128.601 365.99 126.813 364.691 130.223 362.996C154.005 356.345 164.551 345.724 164.551 345.724C164.551 345.724 164.551 332.099 164.551 320.659H176.355C176.355 320.659 176.355 336.235 176.355 345.724Z" fill="#B8551B"/>
<path d="M166.753 322.868L166.952 325.796L167.068 328.642C167.084 330.503 167.117 332.372 167.035 334.225C166.944 336.078 166.886 337.964 166.687 339.867C166.53 341.778 166.29 343.722 166.016 345.723L165.967 346.087C165.934 346.36 165.793 346.592 165.594 346.749C164.336 348.023 163.111 349.065 161.803 350.116C160.512 351.158 159.162 352.126 157.805 353.061C155.057 354.905 152.184 356.543 149.262 358.065C146.324 359.563 143.319 360.927 140.256 362.143C138.733 362.78 137.168 363.302 135.629 363.889C134.073 364.427 132.5 364.923 130.935 365.436L131.391 365.262C131.167 365.378 130.96 365.51 130.919 365.543C130.919 365.543 130.894 365.56 130.952 365.51C130.968 365.494 130.985 365.477 131.001 365.452C131.051 365.403 131.101 365.345 131.142 365.279L131.208 365.171C131.25 365.105 131.283 365.039 131.316 364.964C131.374 364.815 131.407 364.708 131.457 364.443C131.523 363.98 131.424 363.484 131.217 363.12C131.159 362.995 131.076 362.871 130.977 362.764C130.919 362.706 130.886 362.673 130.877 362.656L130.811 362.59C130.77 362.549 130.695 362.499 130.679 362.491C130.67 362.483 130.654 362.466 130.646 362.458C130.604 362.433 130.612 362.441 130.637 362.45C130.654 362.458 130.662 362.466 130.712 362.474C130.861 362.524 131.109 362.598 131.374 362.656C132.458 362.896 133.775 363.053 135.066 363.186C137.673 363.434 140.355 363.583 143.029 363.732C145.711 363.872 148.401 363.98 151.1 364.063C153.956 364.145 156.919 364.493 159.767 365.279C162.606 366.056 165.379 367.289 167.804 368.596C169.013 369.224 170.188 369.861 171.091 370.176C171.563 370.358 171.877 370.366 172.117 370.399C172.316 370.358 172.639 370.333 173.16 370.118C174.162 369.745 175.42 369.117 176.687 368.554C177.961 367.983 179.269 367.429 180.602 366.933C183.259 365.957 185.966 365.146 188.673 364.46C194.103 363.103 199.575 362.226 205.038 361.597C206.404 361.407 207.794 361.316 209.169 361.167L211.238 360.969C211.594 360.927 211.925 360.919 211.975 360.911C211.966 360.911 212.016 360.911 211.908 360.927L211.768 360.977C211.652 361.018 211.544 361.076 211.445 361.143C211.312 361.217 211.188 361.308 211.072 361.416C211.014 361.465 210.957 361.523 210.907 361.581C210.865 361.631 210.808 361.697 210.7 361.829C210.336 362.325 210.162 362.904 210.17 363.525C210.178 363.682 210.195 363.831 210.228 363.98C210.269 364.145 210.269 364.162 210.294 364.253C210.344 364.41 210.41 364.559 210.485 364.699C210.592 364.873 210.592 364.873 210.634 364.939C210.675 364.997 210.716 365.047 210.758 365.097C210.99 365.353 210.99 365.303 210.94 365.279C210.907 365.254 210.808 365.188 210.708 365.13C210.51 365.014 210.236 364.873 209.98 364.741C209.433 364.476 208.846 364.203 208.25 363.938C207.049 363.409 205.808 362.896 204.566 362.375L197.042 359.223C194.542 358.123 192.05 356.982 189.575 355.782C184.625 353.4 179.782 350.678 175.246 347.361L175.238 347.353C174.832 347.204 174.567 346.857 174.501 346.46L174.377 345.707C174.203 344.665 174.062 343.622 173.988 342.572L173.856 341.008L173.798 339.445C173.682 337.36 173.731 335.268 173.715 333.183L173.707 330.048L173.773 326.913C173.806 324.828 173.897 322.735 174.013 320.651V320.642L176.38 323.008C174.692 323.132 173.094 323.207 171.529 323.174C169.932 323.165 168.376 323.033 166.753 322.868ZM162.349 318.467C164.791 318.417 167.242 318.459 169.609 318.624C171.976 318.781 174.236 319.054 176.355 319.352L176.604 319.385C177.241 319.476 177.696 320.039 177.672 320.667V320.676C177.638 322.76 177.581 324.853 177.589 326.938C177.581 329.022 177.589 331.115 177.622 333.199C177.655 335.284 177.655 337.377 177.746 339.461C177.796 341.546 177.961 343.639 178.185 345.723L177.39 344.218L177.398 344.226C181.728 347.188 186.504 349.636 191.355 351.886C196.222 354.136 201.222 356.146 206.255 358.165C207.513 358.677 208.779 359.182 210.046 359.728C210.683 360.001 211.321 360.282 211.966 360.597C212.298 360.754 212.62 360.919 212.968 361.118C213.142 361.217 213.316 361.316 213.523 361.457C213.721 361.597 213.937 361.73 214.259 362.086L214.4 362.259C214.45 362.325 214.475 362.35 214.549 362.491C214.607 362.607 214.665 362.731 214.706 362.855C214.748 362.946 214.797 363.169 214.797 363.392C214.814 363.839 214.673 364.245 214.417 364.609C214.342 364.708 214.301 364.757 214.259 364.799L214.119 364.931C214.019 365.014 213.92 365.088 213.812 365.154C213.688 365.221 213.564 365.279 213.432 365.336C213.307 365.386 213.249 365.394 213.15 365.427C212.96 365.485 212.852 365.494 212.711 365.518C212.198 365.601 211.859 365.593 211.536 365.634L209.541 365.824C208.208 365.965 206.884 366.056 205.551 366.238C200.22 366.85 194.922 367.702 189.765 368.984C187.191 369.63 184.658 370.391 182.183 371.301C180.95 371.764 179.733 372.252 178.516 372.798C177.291 373.319 176.107 373.923 174.667 374.461C173.963 374.733 173.077 374.957 172.101 374.998C171.157 374.973 170.246 374.783 169.518 374.502C168.011 373.948 166.819 373.245 165.627 372.624C163.277 371.35 160.967 370.316 158.509 369.621C156.05 368.935 153.517 368.612 150.91 368.521C148.194 368.405 145.479 368.273 142.756 368.099C140.033 367.926 137.317 367.735 134.569 367.421C133.187 367.256 131.821 367.082 130.356 366.734C129.992 366.643 129.611 366.544 129.189 366.379C129.089 366.346 128.973 366.288 128.858 366.238C128.75 366.188 128.634 366.131 128.493 366.048L128.295 365.924C128.228 365.882 128.129 365.8 128.055 365.734C127.964 365.651 127.914 365.618 127.806 365.485C127.707 365.37 127.616 365.237 127.541 365.105C127.368 364.766 127.26 364.327 127.326 363.905C127.351 363.674 127.409 363.55 127.475 363.392C127.541 363.235 127.616 363.095 127.674 363.02C127.74 362.929 127.806 362.838 127.881 362.747L128.063 362.574C128.195 362.449 128.286 362.375 128.394 362.292C128.808 361.986 129.164 361.813 129.511 361.631C129.586 361.597 129.652 361.564 129.727 361.54L129.785 361.523C131.308 361.06 132.839 360.613 134.354 360.125C135.852 359.596 137.375 359.124 138.857 358.545C141.837 357.437 144.767 356.179 147.623 354.806C150.471 353.408 153.26 351.886 155.926 350.19C157.25 349.33 158.558 348.445 159.8 347.494C161.033 346.567 162.3 345.533 163.318 344.549L162.83 345.74C162.772 343.556 162.714 341.347 162.631 339.114C162.556 336.881 162.498 334.631 162.465 332.364L162.349 325.473V318.467Z" fill="black"/>
<path d="M261.434 177.379C295.026 206.571 317.905 262.97 287.36 278.19C256.815 293.411 244.399 181.515 245.375 181.027C246.344 180.547 261.434 177.379 261.434 177.379Z" fill="#FFFF8E"/>
<path d="M262.991 175.601C270.515 182.152 277.204 189.589 283.039 197.629C288.842 205.694 293.916 214.314 297.757 223.545C299.686 228.161 301.317 232.918 302.5 237.823C303.676 242.728 304.421 247.799 304.371 252.977C304.413 254.268 304.239 255.575 304.164 256.865C304.048 258.164 303.792 259.463 303.593 260.761C302.981 263.334 302.269 265.923 301.01 268.33C300.472 269.571 299.694 270.696 298.966 271.846C298.626 272.442 298.138 272.93 297.724 273.467C297.277 273.98 296.88 274.551 296.391 275.022L294.91 276.437C294.653 276.669 294.421 276.917 294.156 277.124L293.345 277.736L291.706 278.952C291.135 279.307 290.547 279.63 289.96 279.977C287.733 281.384 284.72 282.509 281.624 282.476C280.076 282.476 278.52 282.178 277.096 281.673C275.672 281.16 274.356 280.457 273.181 279.638C270.821 278 268.959 275.999 267.336 273.914C265.714 271.821 264.348 269.629 263.106 267.404C260.64 262.929 258.686 258.305 256.964 253.623C255.243 248.941 253.769 244.209 252.445 239.444C249.796 229.915 247.71 220.278 245.955 210.6C245.086 205.761 244.299 200.905 243.604 196.024C243.256 193.584 242.942 191.144 242.652 188.687C242.511 187.454 242.379 186.222 242.255 184.973L242.097 183.07L242.04 182.061L242.031 181.465L242.04 181.06L242.073 180.688C242.089 180.547 242.131 180.34 242.18 180.167C241.99 180.506 242.677 178.545 243.902 178.074L246.865 183.997C248.074 183.567 248.736 181.631 248.538 182.003C248.579 181.871 248.612 181.697 248.62 181.598C248.629 181.548 248.637 181.49 248.637 181.449V181.499V181.821L248.67 182.632L248.794 184.377C248.894 185.56 249.009 186.751 249.134 187.951C249.382 190.341 249.672 192.74 249.986 195.139C250.607 199.937 251.327 204.726 252.138 209.499C253.753 219.045 255.698 228.542 258.181 237.856C259.423 242.513 260.805 247.121 262.403 251.637C264.009 256.137 265.822 260.563 268.032 264.682C269.141 266.734 270.358 268.719 271.724 270.522C273.089 272.317 274.613 273.947 276.293 275.147C277.982 276.346 279.803 277.066 281.665 277.082C283.544 277.107 285.415 276.536 287.344 275.353C287.824 275.08 288.321 274.824 288.792 274.534L290.125 273.558L290.796 273.078C291.019 272.921 291.201 272.715 291.408 272.533L292.617 271.416C293.022 271.044 293.329 270.589 293.693 270.183C294.032 269.753 294.438 269.373 294.711 268.893C295.307 267.966 295.953 267.081 296.4 266.056C297.459 264.112 298.08 261.928 298.635 259.736C298.817 258.611 299.057 257.494 299.173 256.352C299.247 255.203 299.429 254.069 299.396 252.903C299.496 248.262 298.875 243.556 297.823 238.94C296.764 234.316 295.257 229.766 293.469 225.332C289.885 216.448 285.067 208.035 279.538 200.16C273.975 192.302 267.56 185.022 260.383 178.62L262.991 175.601Z" fill="black"/>
<path d="M263.487 311.725C245.947 324.423 220.468 330.924 189.542 329.824C125.157 327.516 95.9036 245.201 97.6916 210.889C97.8241 208.39 100.498 206.852 102.691 208.068C103.643 208.589 104.686 209.069 105.812 209.491C115.009 212.89 125.381 210.516 132.458 203.75C135.538 200.805 138.874 198.1 142.516 195.693C143.981 194.725 145.496 193.798 147.069 192.93C154.196 188.968 162.457 186.031 172.192 184.393L247.801 175.84C247.801 175.84 256.625 177.238 267.75 193.377C268.578 194.568 269.414 195.85 270.275 197.223C274.538 204.097 279.066 213.172 283.511 225.141C297.203 263.656 288.221 293.841 263.487 311.725Z" fill="#FFEC00"/>
<path d="M270.275 197.223C263.487 204.875 244.655 220.352 199.765 203.088C187.108 198.224 179.153 192.922 154.072 198.084C149.759 198.969 145.81 196.413 142.516 195.685C150.636 190.316 160.313 186.387 172.192 184.385L255.433 173.888C255.433 173.888 250.607 167.642 267.75 193.369C268.562 194.585 269.422 195.85 270.275 197.223Z" fill="#FFA62B"/>
<path d="M115.365 236.864C115.688 236.648 116.002 236.491 116.325 236.375C120.886 230.775 131.647 225.944 145.314 225.779C145.314 225.779 139.072 220.427 127.301 223.347C132.657 208.184 143.402 200.21 154.072 198.076L147.069 192.914C145.496 193.783 143.981 194.709 142.516 195.677C138.874 198.084 135.538 200.789 132.458 203.734C125.373 210.509 115.001 212.875 105.812 209.475C104.686 209.053 103.643 208.573 102.692 208.052C100.498 206.844 97.8242 208.375 97.6918 210.873C97.2448 219.443 98.7348 230.999 102.22 243.556C106.773 241.719 111.193 239.618 115.365 236.864Z" fill="#FFA62B"/>
<path d="M145.885 282.385C169.907 268.926 169.501 257.916 164.386 256.444C160.446 255.302 157.176 264.335 150.272 268.926C127.914 276.264 110.026 252.895 106.375 245.202C105.042 245.789 98.9747 247.874 97.6172 248.412C99.4217 253.739 101.723 259.248 104.488 264.757C105.969 267.719 110.597 269.679 112.335 272.616C129.23 301.146 154.949 328.576 189.542 329.817C220.468 330.926 245.947 324.424 263.487 311.718C193.482 320.147 165.528 309.468 145.885 282.385Z" fill="#FFA62B"/>
<path d="M263.487 311.725C286.301 269.223 285.291 225.952 267.75 193.377C272.742 200.607 278.18 210.79 283.503 225.142C297.203 263.656 288.221 293.841 263.487 311.725Z" fill="#FFFFB6"/>
<path d="M172.622 186.95C164.204 188.422 156.05 191.127 148.675 195.238C144.999 197.306 141.531 199.73 138.294 202.427C137.5 203.122 136.697 203.8 135.918 204.52L134.768 205.603L134.139 206.182L133.46 206.794C131.631 208.407 129.594 209.797 127.417 210.914C123.063 213.147 118.121 214.297 113.179 214.082C110.713 213.983 108.254 213.553 105.895 212.808C104.711 212.444 103.561 212.006 102.427 211.468C102.145 211.336 101.864 211.195 101.582 211.046L101.16 210.823C101.135 210.823 101.135 210.823 101.119 210.806C101.077 210.798 101.077 210.798 101.052 210.806C101.011 210.806 100.912 210.881 100.895 210.939C100.887 210.955 100.879 210.964 100.879 210.988C100.87 210.997 100.87 211.005 100.87 211.021C100.87 211.046 100.862 211.005 100.862 211.187L100.837 212.742L100.812 214.297L100.87 215.869C100.895 216.919 100.937 217.97 101.044 219.029C101.177 221.138 101.458 223.248 101.723 225.365C102.062 227.475 102.369 229.584 102.816 231.685C106.193 248.486 112.534 264.806 121.267 279.539C125.621 286.918 130.745 293.808 136.514 300.029C139.37 303.172 142.508 306.009 145.719 308.748L148.219 310.683C149.064 311.312 149.867 311.998 150.752 312.561C152.507 313.711 154.196 314.968 156.042 315.961C163.252 320.188 171.099 323.315 179.302 324.737L182.39 325.201L183.93 325.432C184.443 325.49 184.964 325.507 185.486 325.548C187.572 325.672 189.6 325.896 191.785 325.871C196.09 325.97 200.386 325.904 204.665 325.672C213.225 325.217 221.726 324.067 229.971 322.049C230.997 321.793 232.048 321.594 233.058 321.296L236.113 320.419L237.636 319.981L239.134 319.468L242.131 318.434C243.132 318.095 244.084 317.657 245.069 317.276C246.038 316.862 247.031 316.515 247.983 316.068C249.87 315.167 251.832 314.373 253.645 313.33C254.564 312.826 255.499 312.354 256.402 311.833L259.059 310.179C259.497 309.897 259.953 309.641 260.383 309.343L261.65 308.433C262.486 307.821 263.355 307.234 264.183 306.597C265.764 305.248 267.469 304.032 268.934 302.552C269.679 301.824 270.49 301.162 271.186 300.393L273.305 298.101C273.669 297.729 273.992 297.324 274.315 296.91L275.283 295.686C275.929 294.867 276.599 294.065 277.154 293.18L278.901 290.582L280.448 287.861C280.697 287.406 280.978 286.959 281.21 286.487L281.872 285.065C282.303 284.113 282.791 283.179 283.172 282.203C283.9 280.234 284.712 278.29 285.233 276.238L285.688 274.725L285.92 273.964L286.094 273.186L286.798 270.084L286.971 269.306L287.087 268.521L287.327 266.941L287.567 265.361C287.658 264.831 287.725 264.302 287.758 263.772C287.907 261.638 288.163 259.504 288.13 257.353L288.163 254.119L287.998 250.884C287.94 248.717 287.634 246.575 287.435 244.407C287.352 243.324 287.162 242.248 286.988 241.173L286.475 237.939C286.077 235.796 285.572 233.67 285.117 231.52L283.462 225.142L283.569 225.1C284.38 227.144 285.216 229.187 286.003 231.247C286.682 233.348 287.418 235.432 288.048 237.558C289.223 241.818 290.349 246.145 290.912 250.578C292.145 259.405 292.178 268.578 290.133 277.504C289.686 279.746 288.941 281.913 288.263 284.105C287.907 285.197 287.435 286.248 287.021 287.315L286.375 288.919C286.152 289.449 285.879 289.953 285.63 290.475L284.091 293.577L282.328 296.555C281.765 297.572 281.086 298.498 280.415 299.45L279.414 300.873C279.083 301.352 278.752 301.824 278.371 302.254L276.169 304.934C275.44 305.836 274.596 306.63 273.81 307.482C272.253 309.203 270.49 310.7 268.769 312.255C267.883 312.991 266.947 313.678 266.037 314.389L264.663 315.448C264.199 315.795 263.711 316.101 263.239 316.424L260.367 318.351C259.39 318.955 258.388 319.518 257.395 320.105C249.448 324.787 240.723 327.839 231.916 330.048C223.067 332.157 214.061 333.291 205.071 333.704C200.576 333.911 196.073 333.944 191.595 333.812C189.376 333.82 187.034 333.564 184.741 333.39C184.161 333.34 183.59 333.307 183.011 333.233L181.297 332.96L177.87 332.406C168.748 330.718 160.048 327.145 152.176 322.405C150.165 321.28 148.327 319.907 146.423 318.616C145.463 317.987 144.594 317.243 143.683 316.54C142.789 315.828 141.878 315.134 140.993 314.406C137.549 311.411 134.205 308.301 131.184 304.909C125.083 298.192 119.76 290.83 115.274 283.038C106.276 267.462 99.9019 250.504 96.5494 232.851C96.1106 230.651 95.8044 228.409 95.4733 226.184C95.2166 223.942 94.9435 221.701 94.8276 219.426C94.7283 218.301 94.7034 217.159 94.6786 216.009L94.6372 214.297L94.6786 212.568L94.7283 210.839C94.7283 210.74 94.7531 210.442 94.7862 210.202C94.811 209.954 94.8607 209.706 94.9269 209.458C95.0428 208.962 95.2332 208.482 95.4815 208.027C96.45 206.207 98.296 204.941 100.365 204.718C101.392 204.602 102.468 204.759 103.412 205.148C103.643 205.248 103.875 205.363 104.09 205.471L104.397 205.636L105.034 205.959C105.887 206.381 106.806 206.737 107.733 207.026C109.579 207.63 111.499 207.986 113.453 208.093C117.343 208.316 121.316 207.498 124.851 205.752C126.623 204.884 128.278 203.8 129.785 202.518L130.339 202.03L130.621 201.79L130.935 201.509L132.202 200.367C133.046 199.606 133.924 198.886 134.801 198.158C138.344 195.305 142.143 192.748 146.15 190.589C154.179 186.288 162.962 183.575 171.836 182.177L172.622 186.95Z" fill="black"/>
<path d="M306.532 136.581C305.431 149.221 296.449 165.583 277.063 176.577C260.532 185.965 236.427 191.458 203.208 187.421C143.675 185.725 124.28 154.027 123.949 121.741C123.601 88.1731 142.781 50.7089 169.551 39.5251C191.487 30.3514 203.407 27.39 215.567 19.6639C218.257 17.9516 220.939 16.0242 223.762 13.7328C231.071 12.7567 227.495 23.9488 222.471 28.97C247.461 28.6474 291.433 43.4047 295.009 99.1915C295.978 108.919 308.469 114.156 306.532 136.581Z" fill="#FFEC00"/>
<path d="M306.532 136.581C305.431 149.221 296.449 165.583 277.063 176.577C276.442 174.748 277.295 172.598 280.424 170.091C295.878 157.675 302.202 132.015 291.011 117.423C279.811 102.823 286.019 99.0591 283.743 91.515C267.105 42.379 226.254 38.6069 206.9 40.5508C206.9 40.5508 213.589 32.5187 214.052 22.1041C214.052 22.1041 214.607 21.2025 215.559 19.6639C218.249 17.9516 220.931 16.0242 223.754 13.7328C231.063 12.7567 227.487 23.9488 222.463 28.97C247.453 28.6474 291.425 43.4047 295.001 99.1915C295.978 108.919 308.469 114.156 306.532 136.581Z" fill="#FFFFB6"/>
<path d="M142.193 64.7803C135.099 101.732 110.597 172.507 212.347 179.853C255.805 182.086 279.339 173.963 295.357 155.732C295.357 155.732 269.422 210.865 172.2 184.394C122.194 166.196 110.34 110.541 142.193 64.7803Z" fill="#FFA62B"/>
<path d="M203.391 189.059C197.629 189.729 191.802 189.771 185.982 189.307C180.163 188.861 174.36 187.81 168.698 186.131C163.036 184.452 157.54 182.111 152.35 179.158C149.734 177.71 147.267 175.998 144.858 174.203C142.507 172.333 140.198 170.381 138.137 168.181C133.915 163.863 130.43 158.817 127.748 153.415C126.44 150.693 125.331 147.889 124.396 145.027C123.518 142.157 122.757 139.245 122.243 136.292C121.192 130.402 120.845 124.413 121.109 118.499C121.325 112.576 122.161 106.711 123.419 100.945C125.968 89.4389 130.306 78.3378 136.415 68.221C139.453 63.1585 142.996 58.369 146.994 53.9683C149.03 51.7927 151.149 49.6916 153.426 47.7477C155.719 45.8203 158.119 44.0005 160.669 42.3874C163.227 40.7909 165.925 39.3764 168.723 38.2017C171.389 37.1015 174.054 35.9931 176.728 34.9343C182.075 32.8001 187.464 30.7652 192.787 28.7054C198.109 26.6539 203.316 24.5115 208.241 21.9637C213.15 19.3994 217.736 16.3221 222.057 12.8148L222.065 12.8065L222.148 12.7403C222.562 12.4177 223.059 12.2275 223.547 12.1696C224.656 12.0372 226.005 11.971 227.562 12.6493C228.323 12.9637 229.06 13.551 229.615 14.2045C230.169 14.8828 230.5 15.6107 230.715 16.289C231.121 17.6539 231.096 18.8203 231.005 19.8791C230.898 20.9379 230.682 21.9058 230.409 22.8322C229.863 24.6769 229.085 26.3479 228.166 27.9527C227.231 29.5492 226.146 31.063 224.764 32.4609L224.755 32.4692L222.603 27.3819C228.257 27.3322 233.861 27.9526 239.341 29.1107C244.813 30.2936 250.185 31.9894 255.3 34.2973C257.875 35.4141 260.358 36.7376 262.8 38.1438C265.201 39.608 267.56 41.1466 269.778 42.8837C274.248 46.3166 278.304 50.2872 281.806 54.7045C288.801 63.5721 293.378 74.1356 295.737 84.9968C296.292 87.7183 296.814 90.4481 297.136 93.2027L297.41 95.2624L297.583 97.3139L297.757 99.3653L297.848 100.383L297.989 101.136C298.337 103.187 299.479 105.338 300.853 107.563C302.235 109.788 303.775 112.146 305.075 114.702C307.732 119.781 309.222 125.613 309.363 131.295C309.396 132.718 309.462 134.141 309.338 135.547C309.263 136.954 309.214 138.36 308.982 139.807C308.568 142.67 307.823 145.441 306.846 148.113C304.901 153.465 301.971 158.345 298.502 162.738C296.739 164.913 294.868 166.998 292.807 168.875C291.805 169.843 290.729 170.728 289.678 171.638C288.577 172.482 287.526 173.392 286.375 174.178C281.88 177.429 277.054 180.159 272.013 182.351C266.956 184.518 261.716 186.164 256.41 187.397C245.781 189.886 234.854 190.59 224.077 190.151C226.775 189.671 229.457 189.291 232.106 188.795L234.093 188.455C234.755 188.331 235.409 188.182 236.071 188.05C237.387 187.777 238.704 187.579 240.003 187.256L243.894 186.363L247.743 185.386C249.018 185.031 250.268 184.625 251.542 184.286C252.809 183.931 254.042 183.492 255.292 183.103C265.209 179.803 274.497 175.17 282.46 169.016C286.508 166.022 290.034 162.432 293.204 158.61C296.3 154.738 298.9 150.454 300.563 145.879C301.408 143.604 302.037 141.263 302.384 138.922C302.575 137.781 302.625 136.523 302.699 135.283C302.815 134.034 302.757 132.809 302.74 131.585C302.633 126.663 301.474 122.056 299.255 117.713C298.163 115.512 296.789 113.386 295.324 110.996C293.891 108.613 292.252 105.826 291.615 102.261L291.408 100.92L291.325 99.9278L291.168 97.9591L291.011 95.9903L290.762 94.063C290.481 91.4821 290.001 88.9425 289.504 86.403C287.36 76.3111 283.213 66.6742 276.922 58.5924C264.34 42.3791 243.347 33.2633 222.678 33.131C221.138 33.1227 219.896 31.8653 219.905 30.3267C219.913 29.5822 220.211 28.9039 220.683 28.4076L220.691 28.3994C222.554 26.5133 224.118 23.8083 224.921 21.2027C225.12 20.5492 225.26 19.9039 225.318 19.3249C225.385 18.7459 225.343 18.2164 225.269 17.9683C225.227 17.8525 225.194 17.8028 225.202 17.8111C225.194 17.8276 225.269 17.8359 225.227 17.8359C225.219 17.8028 224.813 17.7284 224.292 17.8028L225.641 17.2155L225.633 17.2238C221.138 21.0207 216.246 24.4867 211.023 27.3074C205.783 30.0951 200.377 32.3782 195.03 34.5124C189.658 36.6052 184.327 38.6319 179.037 40.7661C176.388 41.8249 173.764 42.9168 171.14 44.017C168.682 45.0676 166.323 46.3084 164.046 47.7394C154.957 53.5381 147.582 62.0914 141.92 71.5381C136.233 81.0179 132.16 91.5151 129.801 102.343C128.626 107.761 127.897 113.262 127.649 118.763C127.376 124.273 127.682 129.765 128.609 135.142C130.447 145.887 135.149 156.054 142.541 163.987C144.353 166.005 146.398 167.792 148.492 169.537C150.653 171.2 152.863 172.813 155.239 174.186C159.94 177.015 165.04 179.224 170.304 181.027C175.577 182.83 181.016 184.204 186.545 185.411C192.075 186.578 197.695 187.579 203.391 188.563V189.059Z" fill="black"/>
<path d="M159.345 259.455C159.254 259.802 159.171 260.15 159.071 260.497C156.505 269.803 138.145 280.3 122.558 274.932C114.918 272.301 108.958 268.629 104.488 264.757C94.2729 255.939 92.6257 248.006 95.3408 247.113C115.547 243.754 110.514 228.137 145.322 225.779L160.421 249.131C160.421 249.14 160.719 253.813 159.345 259.455Z" fill="#FFEC00"/>
<path d="M159.345 259.454C159.254 259.802 159.171 260.149 159.071 260.497C156.505 269.803 138.145 280.3 122.558 274.931C114.918 272.301 108.958 268.628 104.488 264.757C101.731 259.239 99.43 253.738 97.6255 248.411C98.9748 247.873 105.051 245.781 106.375 245.193C110.034 252.878 127.922 276.263 150.28 268.918C154.204 266.304 156.961 262.242 159.345 259.454Z" fill="#FFA62B"/>
<path d="M126.3 226.474C123.767 228.443 121.581 230.528 119.495 232.786C118.436 233.894 117.384 235.019 116.333 236.177C115.282 237.336 114.164 238.444 113.022 239.594C110.762 241.902 108.146 244.019 105.183 245.905C102.195 247.734 98.7677 249.098 95.2083 249.884L95.9036 249.719C96.243 249.628 96.5824 249.471 96.8638 249.256C97.137 249.065 97.377 248.875 97.5674 248.619L97.6999 248.437L97.7909 248.321C97.8489 248.238 97.9068 248.155 97.9482 248.064C97.9979 247.982 98.031 247.874 98.0641 247.8C98.0889 247.758 98.1055 247.717 98.1303 247.667C98.1634 247.585 98.1883 247.461 98.1966 247.411C98.2131 247.386 98.2214 247.361 98.2214 247.336C98.2214 247.32 98.2214 247.312 98.2214 247.295C98.2214 247.295 98.2297 247.312 98.2297 247.32C98.2379 247.336 98.2379 247.353 98.2379 247.37C98.2628 247.601 98.4035 248.189 98.6104 248.759C99.0409 249.95 99.6452 251.324 100.448 252.614C102.004 255.253 104.016 257.801 106.276 260.15C108.527 262.524 111.085 264.683 113.875 266.577C116.673 268.455 119.702 270.06 122.864 271.408C128.75 274.138 135.703 274.088 142.334 272.31C145.645 271.383 148.848 269.944 151.779 268.05C153.235 267.09 154.601 265.99 155.81 264.724C157.01 263.459 158.078 262.052 158.748 260.406L159.444 260.597C159.758 262.673 159.179 264.832 158.268 266.693C157.821 267.644 157.234 268.488 156.654 269.348C156.025 270.159 155.338 270.92 154.634 271.656C153.186 273.087 151.539 274.287 149.8 275.288C148.078 276.33 146.241 277.149 144.353 277.836C140.562 279.151 136.514 279.722 132.491 279.573C130.48 279.49 128.477 279.275 126.507 278.878L125.041 278.53C124.553 278.406 124.073 278.249 123.593 278.109C122.641 277.802 121.672 277.439 120.82 277.091C113.775 274.32 107.17 270.308 101.781 264.956C99.0988 262.284 96.6983 259.306 94.8275 255.964C93.8921 254.293 93.0974 252.531 92.5511 250.629C92.2945 249.669 92.0793 248.685 92.0544 247.585C92.0627 247.022 92.071 246.46 92.3028 245.781C92.3442 245.624 92.4104 245.459 92.518 245.277C92.6256 245.103 92.6835 244.938 92.8574 244.764C93.0147 244.598 93.1719 244.433 93.3623 244.301C93.5693 244.177 93.7928 244.069 94.008 243.986C94.0577 243.97 94.1156 243.953 94.1653 243.945H94.1984C97.1453 243.54 100.026 242.638 102.741 241.314C105.464 239.999 108.022 238.287 110.506 236.45C112.997 234.614 115.431 232.654 117.989 230.85C120.547 229.047 123.245 227.393 126.167 226.268L126.3 226.474Z" fill="black"/>
<path d="M296.093 129.691C295.067 133.769 291.102 137.781 283.718 140.37C284 144.705 282.725 149.346 268.421 155.574C238.016 168.81 195.974 149.834 195.974 132.181C195.974 130.146 196.528 128.128 197.729 126.184C197.737 125.307 198.142 124.463 199.194 123.777C200.071 123.189 201.429 122.71 203.399 122.412C235.508 117.457 241.228 102.013 254.87 102.36C255.723 102.377 256.617 102.46 257.535 102.617C265.598 103.948 268.255 112.957 282.534 115.521C288.246 116.547 292.36 119.028 294.545 122.097V122.106C296.201 124.414 296.756 127.069 296.093 129.691Z" fill="#FF8324"/>
<path d="M283.718 140.371C283.768 141.156 283.768 141.942 283.652 142.753C283.122 146.434 280.142 150.479 268.421 155.575C246.154 165.27 217.637 157.676 203.978 145.987C198.987 141.719 195.982 136.905 195.982 132.181C195.982 130.146 196.537 128.128 197.737 126.184C197.745 125.307 198.151 124.463 199.202 123.777C201.28 123.942 202.654 124.224 202.654 124.224C238.679 152.307 293.055 131.478 294.562 122.098C298.751 128.004 295.878 136.111 283.718 140.371Z" fill="#B8551B"/>
<path d="M283.644 142.753C283.114 146.434 280.134 150.479 268.412 155.575C246.145 165.269 217.628 157.676 203.97 145.987C226.709 155.575 252.403 160 283.503 142.596L283.644 142.753Z" fill="#FF8324"/>
<path d="M296.093 129.691C293.974 133.596 291.946 136.325 291.946 132.545C291.946 124.596 286.913 122.817 277.659 120.377C268.412 117.945 257.709 112.436 254.862 102.36C255.714 102.377 256.608 102.46 257.527 102.617C265.59 103.949 268.247 112.957 282.526 115.521C288.238 116.547 292.352 119.029 294.537 122.097V122.106C296.201 124.414 296.755 127.069 296.093 129.691Z" fill="white"/>
<path d="M282.22 117.25C276.839 116.39 271.492 114.065 267.113 110.814C264.919 109.226 262.908 107.563 260.962 106.397C259.977 105.826 259.009 105.396 257.999 105.165C257.751 105.098 257.494 105.057 257.237 105.016L256.385 104.908C255.814 104.809 255.242 104.809 254.671 104.767C253.529 104.759 252.395 104.825 251.269 105.024C250.143 105.239 249.026 105.545 247.908 105.959C245.673 106.786 243.455 107.944 241.22 109.21C236.758 111.749 232.172 114.512 227.321 116.754C222.479 119.02 217.446 120.906 212.314 122.346C209.748 123.082 207.157 123.694 204.549 124.24C203.266 124.496 201.859 124.761 200.816 125.026C199.723 125.315 198.705 125.721 198.084 126.225C197.77 126.473 197.563 126.722 197.406 127.019C197.331 127.176 197.257 127.342 197.19 127.549C197.124 127.739 197.066 128.02 197.025 128.21C196.892 129.195 196.851 130.411 196.967 131.511C197.182 133.761 197.944 135.978 199.078 138.038C201.379 142.165 205.046 145.623 209.144 148.386C217.43 153.912 227.396 156.956 237.396 157.907C247.42 158.825 257.684 157.485 266.898 153.573C269.224 152.588 271.525 151.488 273.677 150.272C275.813 149.048 277.857 147.666 279.323 146.078C280.051 145.284 280.606 144.457 280.92 143.605C281.077 143.175 281.185 142.736 281.243 142.265C281.276 142.033 281.284 141.785 281.293 141.528V141.14V140.941C281.276 140.561 281.342 140.147 281.475 139.775C281.748 139.022 282.319 138.393 283.031 138.046C283.122 138.005 283.213 137.963 283.304 137.93L283.379 137.905L283.486 137.864L283.701 137.79C283.991 137.69 284.273 137.583 284.554 137.467C285.117 137.244 285.663 137.004 286.21 136.756C287.286 136.243 288.32 135.664 289.272 135.01C291.16 133.695 292.79 132.098 293.635 130.229C294.496 128.376 294.512 126.3 293.618 124.405C292.741 122.503 291.052 120.848 289.016 119.69C286.963 118.483 284.629 117.722 282.22 117.25ZM282.973 113.089C285.738 113.66 288.494 114.57 291.027 116.067C293.552 117.54 295.861 119.707 297.194 122.577C297.856 124 298.229 125.588 298.229 127.176C298.237 128.765 297.873 130.328 297.244 131.718C295.969 134.522 293.767 136.549 291.507 138.162C290.357 138.964 289.148 139.642 287.907 140.238C287.286 140.528 286.657 140.809 286.028 141.057C285.713 141.189 285.398 141.305 285.076 141.421L284.836 141.512L284.72 141.553L284.67 141.57L284.736 141.537C284.918 141.446 285.067 141.28 285.142 141.082C285.175 140.983 285.191 140.875 285.183 140.784L285.191 141.057C285.2 141.239 285.191 141.421 285.191 141.603C285.183 141.975 285.167 142.347 285.117 142.72C285.034 143.472 284.86 144.233 284.595 144.953C284.074 146.409 283.205 147.675 282.236 148.733C280.283 150.868 277.982 152.39 275.655 153.755C273.313 155.103 270.929 156.261 268.479 157.32C258.603 161.572 247.677 163.201 236.965 162.374C231.601 161.952 226.278 160.951 221.113 159.338C215.956 157.709 210.948 155.492 206.329 152.472C201.743 149.453 197.447 145.623 194.5 140.503C193.051 137.955 192 135.051 191.669 131.974C191.586 131.205 191.553 130.436 191.553 129.658C191.57 129.269 191.57 128.889 191.603 128.483C191.644 128.062 191.677 127.656 191.735 127.226C191.835 126.722 191.917 126.349 192.066 125.869C192.207 125.406 192.406 124.91 192.654 124.43C193.167 123.454 193.929 122.577 194.724 121.949C196.346 120.675 197.944 120.145 199.434 119.715C201.023 119.301 202.124 119.103 203.399 118.838L207.115 118.036C208.349 117.738 209.582 117.465 210.799 117.126C215.691 115.844 220.459 114.14 225.087 112.072C229.739 110.012 234.142 107.456 238.795 104.9C241.129 103.634 243.571 102.393 246.245 101.442C247.586 100.971 248.984 100.607 250.425 100.35C251.865 100.11 253.339 100.036 254.795 100.077C255.516 100.135 256.252 100.16 256.956 100.284L258.032 100.441C258.413 100.516 258.794 100.582 259.166 100.689C260.673 101.07 262.08 101.74 263.33 102.501C265.813 104.064 267.8 105.81 269.811 107.29C271.815 108.779 273.867 110.037 276.061 110.972C278.246 111.981 280.572 112.651 282.973 113.089Z" fill="black"/>
<path d="M284.024 142.686C280.597 144.266 277.145 145.275 273.66 146.119C270.175 146.955 266.666 147.575 263.131 148.03C256.07 148.94 248.943 149.221 241.824 148.816C234.705 148.41 227.578 147.285 220.683 145.068C213.82 142.852 207.124 139.452 201.677 134.348C200.667 133.405 200.617 131.825 201.561 130.816C202.505 129.807 204.086 129.757 205.096 130.7L205.104 130.708C209.839 135.183 215.848 138.31 222.197 140.386C228.571 142.463 235.309 143.571 242.097 143.977C248.885 144.382 255.747 144.142 262.51 143.298C265.896 142.868 269.257 142.289 272.543 141.511C275.829 140.734 279.091 139.766 282.004 138.434L282.054 138.409C283.229 137.872 284.62 138.385 285.158 139.568C285.713 140.759 285.2 142.148 284.024 142.686Z" fill="black"/>
<path d="M252.726 119.69C246.269 120.046 243.397 115.174 245.276 112.287C248.14 107.911 256.484 119.475 252.726 119.69Z" fill="black"/>
<path d="M189.926 124.547C190.285 120.864 183.766 117.217 175.366 116.4C166.967 115.584 159.867 117.908 159.508 121.591C159.15 125.274 165.669 128.922 174.068 129.738C182.468 130.554 189.568 128.23 189.926 124.547Z" fill="#FF8EB2"/>
<path d="M206.909 107.893C214.617 107.893 220.865 101.649 220.865 93.9467C220.865 86.2441 214.617 80 206.909 80C199.201 80 192.952 86.2441 192.952 93.9467C192.952 101.649 199.201 107.893 206.909 107.893Z" fill="black"/>
<path d="M214.5 94.733C217.019 94.733 219.061 92.6924 219.061 90.1751C219.061 87.6578 217.019 85.6172 214.5 85.6172C211.981 85.6172 209.938 87.6578 209.938 90.1751C209.938 92.6924 211.981 94.733 214.5 94.733Z" fill="white"/>
<path d="M273.859 102.335C279.588 102.335 284.231 97.6947 284.231 91.9704C284.231 86.246 279.588 81.6055 273.859 81.6055C268.131 81.6055 263.487 86.246 263.487 91.9704C263.487 97.6947 268.131 102.335 273.859 102.335Z" fill="black"/>
<path d="M276.517 93.4342C278.798 93.4342 280.647 91.5862 280.647 89.3065C280.647 87.0268 278.798 85.1787 276.517 85.1787C274.235 85.1787 272.386 87.0268 272.386 89.3065C272.386 91.5862 274.235 93.4342 276.517 93.4342Z" fill="white"/>
</svg>
